<svg id="svg" version="1.1" xmlns="http://www.w3.org/2000/svg" xmlns:xlink="http://www.w3.org/1999/xlink" width="400" height="266.6666666666667" viewBox="0, 0, 400,266.6666666666667"><g id="svgg"><path id="path0" d="M63.672 92.958 C 69.150 93.045,72.203 93.181,71.680 93.315 C 69.939 93.759,70.672 94.268,73.112 94.310 C 74.365 94.332,75.918 94.373,76.563 94.401 C 77.207 94.430,78.320 94.479,79.036 94.510 C 79.946 94.551,80.186 94.628,79.832 94.766 C 79.354 94.953,79.359 94.974,79.922 95.121 C 80.589 95.295,81.250 95.118,81.250 94.764 C 81.250 94.636,81.667 94.531,82.177 94.531 C 82.728 94.531,83.038 94.637,82.943 94.792 C 82.843 94.953,83.326 95.052,84.214 95.052 C 85.002 95.052,85.719 94.935,85.807 94.792 C 86.078 94.354,87.096 94.502,87.423 95.026 C 87.705 95.477,87.820 95.491,88.723 95.177 L 89.714 94.833 89.978 96.002 C 90.239 97.155,90.625 97.301,90.625 96.246 C 90.625 95.867,90.802 95.692,91.211 95.668 C 91.533 95.648,92.295 95.556,92.904 95.462 C 93.697 95.341,94.010 95.383,94.010 95.613 C 94.010 95.795,94.154 95.737,94.344 95.477 C 94.628 95.088,94.791 95.066,95.450 95.327 C 96.929 95.911,110.959 96.158,111.145 95.603 C 111.260 95.255,114.399 95.481,115.202 95.895 C 115.811 96.209,116.954 96.348,116.793 96.088 C 116.634 95.830,112.921 94.371,111.488 94.004 C 107.055 92.867,107.650 92.889,80.599 92.852 C 66.419 92.832,58.802 92.880,63.672 92.958 M74.879 98.506 C 74.742 99.360,74.364 100.144,73.668 101.018 C 72.722 102.205,72.656 102.400,72.656 104.015 C 72.656 105.726,72.649 105.744,71.875 105.898 L 71.094 106.055 71.094 117.464 L 71.094 128.873 70.258 128.955 C 69.622 129.017,69.378 129.193,69.242 129.688 C 69.143 130.046,69.051 127.539,69.036 124.118 L 69.010 117.897 67.587 116.157 C 66.804 115.200,65.995 114.092,65.788 113.694 L 65.413 112.970 64.979 113.884 C 64.741 114.387,63.853 115.401,63.007 116.137 L 61.468 117.475 61.398 123.386 L 61.328 129.297 60.482 129.378 L 59.635 129.460 59.635 128.039 C 59.635 126.366,58.568 125.525,56.771 125.781 L 55.859 125.911 55.788 130.143 L 55.716 134.375 54.941 134.375 C 54.220 134.375,54.167 134.308,54.166 133.398 C 54.166 132.292,52.567 130.990,51.210 130.990 L 50.521 130.990 50.521 136.268 L 50.521 141.546 54.047 139.802 C 62.514 135.612,70.984 134.280,79.167 135.851 C 81.851 136.367,81.656 136.194,81.002 137.475 C 80.578 138.306,80.301 138.549,79.747 138.577 C 79.164 138.606,79.138 138.632,79.602 138.723 C 80.164 138.832,80.162 138.845,79.342 140.602 L 78.516 142.370 76.823 142.805 C 75.007 143.271,73.986 143.387,69.922 143.588 L 67.318 143.718 69.401 143.343 C 70.547 143.138,72.715 142.632,74.219 142.221 L 76.953 141.472 75.130 141.301 C 74.128 141.207,72.401 141.002,71.293 140.846 C 70.184 140.690,69.042 140.624,68.754 140.700 C 68.465 140.775,68.229 140.745,68.229 140.633 C 68.229 140.521,68.610 140.345,69.076 140.243 C 69.541 140.140,69.805 140.008,69.661 139.950 C 69.324 139.813,66.221 140.811,62.760 142.170 C 59.155 143.585,56.958 144.149,53.433 144.561 L 50.521 144.901 50.521 148.339 L 50.521 151.776 52.777 151.964 C 55.164 152.163,60.706 151.916,60.933 151.601 C 61.145 151.307,63.765 149.650,65.625 148.633 C 68.724 146.939,73.612 145.573,76.577 145.573 C 78.020 145.573,78.927 144.680,79.802 142.400 C 82.526 135.301,87.722 128.508,93.938 123.916 C 95.868 122.490,95.623 122.363,90.488 122.120 C 85.652 121.891,85.483 121.839,86.589 120.915 C 89.818 118.214,95.467 116.667,102.099 116.667 C 105.095 116.667,107.543 116.541,108.386 116.343 C 110.631 115.817,119.946 115.911,122.628 116.488 C 126.292 117.276,129.285 119.056,130.325 121.067 L 130.703 121.798 128.177 121.965 C 122.984 122.309,121.932 122.160,122.204 121.120 C 122.325 120.656,122.231 120.573,121.581 120.573 C 119.915 120.573,119.014 121.847,120.031 122.767 C 120.472 123.166,121.287 123.228,126.997 123.291 C 134.046 123.369,135.410 123.589,136.967 124.899 C 138.864 126.496,137.866 127.054,131.164 128.149 C 127.701 128.715,122.445 130.343,120.365 131.495 C 119.273 132.101,119.014 132.168,119.122 131.820 C 120.061 128.793,119.254 128.511,117.778 131.351 C 116.511 133.789,114.441 135.812,112.036 136.962 C 109.765 138.048,109.683 137.990,110.556 135.917 C 111.486 133.707,111.746 131.390,111.042 131.593 C 110.770 131.672,109.551 131.931,108.333 132.170 C 101.273 133.552,91.367 137.980,84.896 142.648 C 82.965 144.040,83.154 143.637,85.807 140.703 C 87.767 138.536,95.599 133.075,97.708 132.406 C 97.970 132.322,98.106 132.127,98.010 131.972 C 97.911 131.811,97.957 131.765,98.119 131.865 C 98.501 132.101,100.280 131.231,100.079 130.906 C 99.991 130.765,100.040 130.723,100.188 130.815 C 100.462 130.984,103.305 130.086,104.948 129.311 C 105.829 128.895,105.833 128.886,105.078 129.042 C 103.958 129.273,104.587 128.799,105.890 128.429 C 107.315 128.025,107.597 128.063,106.641 128.531 C 105.689 128.997,105.912 128.940,109.665 127.747 C 111.296 127.229,114.447 126.469,116.667 126.058 C 120.400 125.366,121.193 125.043,118.059 125.490 C 116.831 125.665,115.440 125.280,116.067 124.939 C 116.182 124.876,116.100 124.881,115.885 124.950 C 115.671 125.019,115.303 125.083,115.069 125.093 C 114.832 125.104,114.700 125.261,114.771 125.446 C 114.844 125.637,114.712 125.781,114.466 125.781 C 114.227 125.781,114.106 125.661,114.197 125.514 C 114.287 125.368,114.265 125.264,114.147 125.285 C 113.647 125.372,113.261 125.244,113.390 125.035 C 113.583 124.722,111.496 125.138,108.902 125.929 C 107.558 126.339,106.776 126.707,106.840 126.899 C 106.896 127.070,106.795 127.356,106.615 127.537 C 106.226 127.926,105.892 127.973,106.118 127.607 C 106.209 127.460,106.105 127.416,105.874 127.504 C 105.653 127.589,105.530 127.752,105.600 127.867 C 105.671 127.981,105.373 128.198,104.939 128.350 C 104.504 128.501,104.214 128.519,104.294 128.390 C 104.375 128.259,104.009 128.216,103.456 128.292 C 102.671 128.401,102.552 128.367,102.865 128.122 C 103.197 127.861,103.184 127.838,102.778 127.970 C 102.516 128.055,102.256 128.125,102.200 128.125 C 102.145 128.125,102.169 128.306,102.254 128.526 C 102.338 128.747,102.305 128.909,102.180 128.886 C 101.483 128.759,101.169 128.912,101.563 129.188 C 101.873 129.405,101.839 129.429,101.398 129.306 C 101.038 129.206,100.791 129.286,100.695 129.536 C 100.591 129.808,100.678 129.881,100.990 129.785 C 101.359 129.671,101.353 129.699,100.957 129.952 C 100.696 130.119,100.416 130.190,100.335 130.110 C 100.255 130.029,99.824 130.204,99.378 130.499 C 98.736 130.924,98.680 130.934,99.110 130.550 C 100.155 129.616,99.810 129.139,98.537 129.758 C 97.924 130.056,97.492 130.414,97.579 130.555 C 97.666 130.695,97.610 130.731,97.454 130.635 C 97.128 130.434,95.564 131.318,92.438 133.470 C 86.333 137.672,84.227 139.711,82.183 143.399 C 81.481 144.666,80.806 145.770,80.684 145.851 C 80.189 146.180,82.538 148.935,83.537 149.198 C 84.070 149.338,89.076 149.522,94.661 149.608 C 101.259 149.709,106.232 149.915,108.854 150.195 C 125.474 151.972,136.767 148.445,133.079 142.629 C 132.245 141.314,131.863 141.012,132.330 142.037 C 133.172 143.885,131.367 146.043,127.973 147.248 C 119.206 150.360,105.633 148.488,92.328 142.330 L 89.977 141.242 91.221 140.514 C 93.845 138.975,95.598 139.021,101.031 140.769 C 112.363 144.415,124.569 144.242,128.429 140.382 C 129.353 139.458,129.421 139.435,130.125 139.792 C 130.788 140.127,130.821 140.124,130.469 139.759 C 129.668 138.930,126.894 137.460,125.130 136.931 C 121.703 135.903,120.833 135.235,120.833 133.631 C 120.833 131.291,122.963 130.387,132.874 128.516 C 140.143 127.145,140.769 125.245,134.635 123.167 C 132.848 122.562,132.611 122.395,131.845 121.214 C 128.641 116.274,120.358 113.723,109.231 114.249 C 106.671 114.370,105.854 114.321,105.162 114.004 C 103.808 113.383,102.865 113.218,102.861 113.602 C 102.858 113.829,102.777 113.810,102.604 113.542 C 102.465 113.327,102.350 111.301,102.348 109.041 L 102.344 104.930 98.848 103.213 L 95.352 101.495 92.860 103.026 L 90.367 104.557 90.366 111.129 L 90.365 117.701 89.421 118.095 C 88.903 118.312,88.434 118.490,88.380 118.490 C 88.326 118.490,88.281 117.149,88.281 115.510 C 88.281 113.805,88.170 112.462,88.021 112.370 C 87.878 112.281,87.760 111.988,87.760 111.719 C 87.760 111.066,87.472 110.921,85.926 110.792 C 85.210 110.733,84.288 110.511,83.878 110.299 C 83.215 109.956,83.016 109.960,82.062 110.335 L 80.990 110.756 80.990 114.493 C 80.990 117.640,80.928 118.229,80.599 118.229 C 80.296 118.229,80.208 118.572,80.208 119.752 C 80.208 121.936,79.898 125.298,79.714 125.114 C 79.628 125.028,79.499 120.660,79.427 115.408 L 79.297 105.859 78.451 105.778 L 77.604 105.696 77.604 104.176 C 77.604 102.808,77.500 102.518,76.563 101.270 C 75.990 100.508,75.509 99.588,75.495 99.226 C 75.431 97.605,75.088 97.205,74.879 98.506 M96.450 105.794 C 96.557 106.739,96.522 107.292,96.356 107.292 C 96.208 107.292,96.094 106.592,96.094 105.686 C 96.094 103.741,96.224 103.781,96.450 105.794 M96.287 113.737 C 96.239 114.847,96.199 113.939,96.199 111.719 C 96.199 109.499,96.239 108.590,96.287 109.701 C 96.336 110.811,96.336 112.627,96.287 113.737 M257.552 119.010 L 257.552 120.833 259.766 120.833 L 261.979 120.833 261.979 119.010 L 261.979 117.188 259.766 117.188 L 257.552 117.188 257.552 119.010 M149.281 128.774 L 149.349 140.141 155.408 140.114 C 163.651 140.077,165.651 139.434,167.083 136.359 C 168.589 133.124,167.115 129.692,163.806 128.727 L 162.370 128.308 163.538 127.810 C 168.074 125.879,167.886 120.301,163.214 118.197 C 161.922 117.616,161.512 117.578,155.531 117.495 L 149.213 117.407 149.281 128.774 M192.904 119.595 L 191.146 120.127 191.099 121.587 C 191.074 122.390,191.054 123.252,191.055 123.503 C 191.057 123.880,190.818 123.958,189.669 123.958 L 188.281 123.958 188.281 125.521 L 188.281 127.083 189.648 127.083 L 191.016 127.083 190.937 131.014 C 190.787 138.521,192.175 140.619,197.292 140.624 C 200.011 140.626,200.521 140.316,200.521 138.662 L 200.521 137.270 198.714 137.421 C 196.958 137.569,196.885 137.550,196.110 136.775 L 195.313 135.978 195.312 131.465 L 195.311 126.953 197.786 127.036 L 200.260 127.119 200.260 125.539 L 200.260 123.958 197.709 123.958 L 195.157 123.958 195.225 121.484 C 195.302 118.681,195.471 118.819,192.904 119.595 M160.962 121.167 C 162.878 122.456,162.600 125.530,160.492 126.370 C 159.546 126.748,157.362 126.943,155.013 126.861 L 153.906 126.823 153.906 123.671 L 153.906 120.519 157.096 120.616 C 159.585 120.691,160.435 120.812,160.962 121.167 M175.130 123.964 C 173.371 124.317,171.056 125.285,171.193 125.610 C 171.263 125.776,171.466 126.359,171.644 126.906 C 171.878 127.623,172.083 127.863,172.377 127.765 C 178.139 125.849,180.980 126.268,181.500 129.111 L 181.683 130.112 178.277 130.396 C 173.009 130.834,170.764 131.975,170.073 134.567 C 168.763 139.483,176.045 142.655,180.622 139.162 C 182.042 138.078,182.031 138.077,182.031 139.193 L 182.031 140.104 183.979 140.104 L 185.926 140.104 185.860 134.049 C 185.798 128.347,185.760 127.931,185.209 126.888 C 183.847 124.307,179.583 123.070,175.130 123.964 M232.087 124.025 C 231.617 124.176,230.709 124.760,230.069 125.323 L 228.906 126.346 228.906 125.152 L 228.906 123.958 226.823 123.958 L 224.740 123.958 224.740 132.011 L 224.740 140.065 226.846 140.149 C 229.450 140.254,229.167 140.904,229.167 134.839 C 229.167 128.076,229.726 126.962,233.121 126.962 C 236.161 126.962,236.715 128.236,236.717 135.221 L 236.719 140.104 238.943 140.104 L 241.167 140.104 241.129 134.902 C 241.080 128.186,241.681 126.935,244.941 126.967 C 248.127 126.998,248.698 128.211,248.698 134.957 L 248.698 140.104 250.781 140.104 L 252.865 140.104 252.859 134.310 C 252.853 128.055,252.678 127.124,251.221 125.561 C 248.799 122.962,242.893 123.270,240.798 126.104 L 240.267 126.823 239.488 125.878 C 237.949 124.011,234.683 123.193,232.087 124.025 M298.828 123.866 C 297.092 124.127,295.296 124.763,295.476 125.054 C 295.595 125.247,295.511 125.292,295.234 125.186 C 293.629 124.570,291.070 128.435,290.927 131.690 C 290.718 136.450,293.111 139.409,297.844 140.241 C 304.494 141.409,309.618 137.639,309.321 131.796 C 309.177 128.955,307.429 125.473,306.353 125.886 C 306.162 125.959,305.926 125.889,305.827 125.730 C 305.712 125.542,305.769 125.515,305.990 125.651 C 306.222 125.795,306.268 125.760,306.134 125.543 C 306.025 125.368,305.774 125.287,305.576 125.363 C 305.377 125.440,305.242 125.360,305.277 125.186 C 305.311 125.011,305.083 124.878,304.766 124.889 C 304.450 124.900,304.249 124.817,304.318 124.706 C 304.602 124.245,300.490 123.616,298.828 123.866 M321.224 123.928 C 319.936 124.264,318.670 125.024,317.773 126.002 L 316.927 126.925 316.927 125.572 L 316.927 124.219 314.974 124.219 L 313.021 124.219 313.021 132.161 L 313.021 140.104 315.141 140.104 L 317.262 140.104 317.076 135.313 C 316.901 130.808,316.921 130.459,317.418 129.486 C 317.709 128.916,317.892 128.396,317.826 128.329 C 317.642 128.146,318.709 127.256,319.215 127.170 C 322.479 126.613,323.895 126.983,324.861 128.646 C 325.418 129.604,325.449 130.009,325.498 136.914 L 325.521 140.104 327.491 140.104 L 329.462 140.104 329.379 134.049 C 329.287 127.287,329.116 126.564,327.280 125.163 C 325.794 124.030,323.013 123.463,321.224 123.928 M340.101 123.966 C 337.902 124.301,337.246 124.616,337.373 125.276 C 337.448 125.666,337.327 125.875,336.972 125.968 C 336.693 126.041,336.522 126.194,336.592 126.307 C 336.662 126.421,336.480 126.451,336.188 126.375 C 335.675 126.241,335.672 126.217,336.121 125.683 C 336.489 125.244,336.440 125.258,335.879 125.754 C 335.490 126.097,335.239 126.486,335.321 126.618 C 335.402 126.750,335.224 126.922,334.925 127.000 C 331.963 127.775,332.412 136.038,335.545 138.428 C 338.267 140.504,343.690 141.110,347.526 139.768 C 348.569 139.403,349.360 136.979,348.436 136.979 C 348.277 136.979,348.220 136.861,348.309 136.716 C 348.399 136.571,347.849 136.710,347.088 137.025 C 342.723 138.831,337.945 137.277,337.135 133.789 L 336.969 133.073 343.354 133.073 L 349.740 133.073 349.740 131.103 C 349.740 127.933,347.494 124.319,345.903 124.929 C 345.641 125.029,345.552 124.983,345.663 124.805 C 346.063 124.157,342.435 123.610,340.101 123.966 M203.385 129.771 C 203.385 136.321,203.573 137.330,205.083 138.885 C 207.557 141.432,213.038 141.151,215.339 138.360 L 216.146 137.381 216.146 138.808 L 216.146 140.234 218.099 140.234 L 220.052 140.234 220.052 132.357 C 220.052 128.024,220.081 124.391,220.117 124.284 C 220.153 124.176,219.215 124.055,218.034 124.013 L 215.885 123.937 215.885 128.841 C 215.885 136.086,214.051 138.660,209.993 137.111 C 207.929 136.322,207.815 135.923,207.813 129.492 L 207.813 123.958 205.599 123.958 L 203.385 123.958 203.385 129.771 M257.552 132.096 L 257.552 140.234 259.700 140.192 L 261.849 140.150 261.906 132.054 L 261.963 123.958 259.758 123.958 L 257.552 123.958 257.552 132.096 M274.510 125.651 L 274.568 127.083 278.951 127.083 C 281.361 127.083,283.333 127.153,283.333 127.237 C 283.333 127.453,281.165 130.044,279.442 131.886 C 278.646 132.738,278.171 133.305,278.385 133.146 C 278.786 132.851,278.915 133.273,279.005 135.171 C 279.040 135.914,279.769 136.132,280.457 135.604 C 280.684 135.430,280.646 135.545,280.369 135.871 C 280.099 136.187,279.785 136.388,279.671 136.318 C 279.557 136.247,279.394 136.300,279.311 136.436 C 279.227 136.572,279.267 136.750,279.399 136.832 C 279.622 136.969,282.813 133.721,282.813 133.357 C 282.813 133.268,283.486 132.487,284.310 131.621 C 288.270 127.458,288.802 126.725,288.802 125.427 L 288.802 124.219 281.627 124.219 L 274.452 124.219 274.510 125.651 M122.656 124.948 C 122.656 125.062,123.096 125.114,123.633 125.063 C 125.308 124.904,125.444 124.801,124.023 124.770 C 123.271 124.753,122.656 124.833,122.656 124.948 M295.269 125.814 C 294.609 126.232,293.789 126.094,294.361 125.661 C 294.626 125.460,295.017 125.363,295.229 125.445 C 295.545 125.566,295.552 125.634,295.269 125.814 M113.418 125.942 C 113.186 126.174,112.917 126.285,112.821 126.189 C 112.724 126.092,112.818 125.904,113.028 125.771 C 113.644 125.382,113.876 125.484,113.418 125.942 M302.228 127.091 C 307.336 129.014,305.593 137.745,300.098 137.759 C 294.631 137.773,292.974 128.109,298.247 126.965 C 299.980 126.588,300.978 126.620,302.228 127.091 M344.684 127.635 C 345.528 128.479,346.244 130.232,345.890 130.586 C 345.811 130.665,343.774 130.729,341.363 130.729 C 336.510 130.729,336.614 130.775,337.498 129.041 C 337.896 128.259,337.942 127.975,337.693 127.818 C 337.373 127.614,337.399 127.602,338.151 127.605 C 338.223 127.605,338.721 127.363,339.258 127.068 C 340.902 126.165,343.483 126.434,344.684 127.635 M160.751 130.305 C 163.550 131.498,163.960 135.057,161.458 136.452 C 160.422 137.030,159.917 137.116,157.096 137.199 L 153.906 137.293 153.906 133.621 L 153.906 129.948 156.909 129.948 C 158.872 129.948,160.203 130.072,160.751 130.305 M341.096 131.246 C 340.710 131.362,339.773 131.367,339.013 131.256 C 337.675 131.061,337.697 131.054,339.714 131.044 C 341.170 131.037,341.586 131.098,341.096 131.246 M340.690 132.740 C 340.225 132.798,339.463 132.798,338.997 132.740 C 338.532 132.683,338.913 132.635,339.844 132.635 C 340.775 132.635,341.156 132.683,340.690 132.740 M181.771 134.095 C 181.771 137.170,177.134 139.153,174.980 136.999 C 172.834 134.853,175.018 132.896,179.622 132.839 L 181.771 132.813 181.771 134.095 M275.716 135.905 C 274.056 137.593,273.958 137.759,273.958 138.898 L 273.958 140.104 281.380 140.104 L 288.802 140.104 288.801 138.737 L 288.801 137.370 284.179 137.379 C 280.037 137.387,279.522 137.340,279.217 136.923 C 279.030 136.668,278.754 136.458,278.603 136.458 C 278.453 136.458,278.104 136.171,277.827 135.819 C 277.498 135.400,277.171 135.235,276.878 135.340 C 276.551 135.458,276.600 135.316,277.064 134.807 C 278.299 133.452,277.446 134.147,275.716 135.905 M266.851 136.101 C 266.749 136.202,266.667 137.144,266.667 138.194 L 266.667 140.104 268.761 140.104 L 270.855 140.104 270.779 138.086 L 270.703 136.068 268.869 135.992 C 267.860 135.951,266.952 136.000,266.851 136.101 M64.844 144.010 C 64.844 144.154,64.580 144.283,64.258 144.297 C 63.699 144.322,63.702 144.332,64.323 144.514 C 64.796 144.654,64.384 144.761,62.811 144.907 C 61.621 145.018,60.576 145.038,60.488 144.950 C 60.401 144.863,60.693 144.792,61.136 144.792 C 61.579 144.792,62.108 144.625,62.311 144.422 C 62.633 144.101,63.148 143.953,64.518 143.789 C 64.697 143.768,64.844 143.867,64.844 144.010 M133.729 148.332 C 131.433 152.594,125.374 154.789,115.755 154.843 L 109.505 154.878 107.031 155.697 C 99.264 158.267,93.965 158.818,87.370 157.740 C 79.603 156.471,75.409 156.229,70.237 156.754 C 68.918 156.888,66.784 157.054,65.495 157.123 L 63.151 157.248 65.234 156.898 C 68.387 156.368,75.139 155.699,75.591 155.872 C 75.810 155.956,76.058 155.914,76.141 155.778 C 76.225 155.643,76.852 155.572,77.535 155.621 C 78.481 155.688,78.218 155.578,76.432 155.159 C 72.443 154.221,65.636 154.345,60.417 155.450 C 57.376 156.094,55.657 156.314,53.452 156.343 L 50.523 156.380 50.522 157.707 C 50.520 160.273,46.798 160.029,85.640 160.005 C 123.190 159.982,121.843 160.037,126.254 158.336 C 130.908 156.541,133.852 153.112,134.283 148.983 C 134.476 147.139,134.412 147.064,133.729 148.332 M68.733 149.739 C 67.330 149.962,66.610 150.183,63.997 151.196 C 62.158 151.908,62.270 151.938,68.685 152.443 C 75.611 152.988,80.100 153.619,83.724 154.555 C 87.310 155.481,92.548 156.505,94.271 156.617 C 95.059 156.668,95.410 156.662,95.052 156.604 C 88.754 155.579,83.691 154.032,80.211 152.071 C 76.305 149.869,72.621 149.120,68.733 149.739 M83.207 150.334 C 83.459 150.732,83.730 150.992,83.810 150.912 C 83.890 150.832,83.684 150.506,83.353 150.188 L 82.750 149.609 83.207 150.334 M92.244 151.177 C 92.347 151.284,92.698 151.410,93.025 151.456 C 93.352 151.502,94.420 151.672,95.398 151.835 C 96.375 151.997,97.244 152.061,97.329 151.977 C 97.413 151.892,97.221 151.823,96.901 151.823 C 96.582 151.823,96.123 151.719,95.881 151.592 C 95.321 151.298,91.995 150.918,92.244 151.177 M103.516 153.646 C 103.802 153.769,104.212 153.870,104.427 153.870 C 104.673 153.870,104.625 153.787,104.297 153.646 C 104.010 153.523,103.600 153.422,103.385 153.422 C 103.139 153.422,103.187 153.505,103.516 153.646 M93.373 154.059 C 92.912 154.396,92.968 154.425,94.026 154.397 C 94.662 154.380,94.948 154.308,94.661 154.237 C 94.375 154.165,94.081 154.013,94.009 153.898 C 93.936 153.784,93.650 153.856,93.373 154.059 M97.856 154.616 C 98.324 154.674,99.027 154.673,99.419 154.613 C 99.810 154.554,99.427 154.506,98.568 154.508 C 97.708 154.509,97.388 154.558,97.856 154.616 M120.573 157.264 C 118.027 158.675,108.647 159.575,100.521 159.189 L 96.224 158.984 103.516 158.812 C 110.342 158.651,119.141 157.768,119.723 157.187 C 119.808 157.101,120.123 157.035,120.421 157.039 C 120.850 157.045,120.882 157.092,120.573 157.264 " stroke="none" fill="#253a92" fill-rule="evenodd"></path><path id="path1" d="M0.000 133.333 L 0.000 266.667 200.000 266.667 L 400.000 266.667 400.000 133.333 L 400.000 0.000 200.000 0.000 L 0.000 0.000 0.000 133.333 M106.201 92.852 C 120.753 94.545,129.764 104.363,126.765 115.258 L 126.400 116.584 127.741 117.286 C 129.386 118.147,131.042 119.707,132.048 121.341 C 132.726 122.443,132.948 122.604,134.176 122.879 C 135.933 123.273,138.219 124.579,138.594 125.402 C 139.316 126.987,138.123 127.686,133.073 128.636 C 124.221 130.301,122.014 131.054,121.246 132.672 C 120.356 134.547,121.165 135.478,124.718 136.670 C 131.535 138.956,134.516 142.484,134.331 148.047 C 134.119 154.438,128.990 158.890,120.703 159.876 C 115.765 160.463,51.746 160.246,50.975 159.639 L 50.317 159.121 50.386 127.657 C 50.463 93.170,50.351 95.520,51.995 93.960 C 53.642 92.396,52.350 92.469,78.646 92.458 C 98.776 92.450,103.304 92.515,106.201 92.852 M108.854 116.460 C 108.066 116.613,105.605 116.716,103.385 116.688 C 96.268 116.598,88.904 118.535,86.575 121.109 C 86.051 121.688,87.102 121.908,87.671 121.339 C 88.029 120.981,90.642 120.440,95.177 119.784 C 97.180 119.494,99.595 119.026,100.544 118.743 C 102.733 118.091,102.960 118.106,101.801 118.823 C 101.287 119.141,100.012 119.928,98.967 120.573 C 91.122 125.413,85.301 131.481,81.802 138.471 C 80.718 140.636,80.329 141.786,81.250 140.104 C 81.581 139.499,81.753 139.352,81.760 139.666 C 81.766 139.926,81.650 140.365,81.501 140.642 C 80.748 142.049,81.647 140.861,82.843 138.867 C 91.300 124.775,104.935 116.915,120.365 117.238 C 124.257 117.319,124.757 117.193,122.656 116.659 C 121.066 116.255,110.674 116.105,108.854 116.460 M261.393 117.091 C 261.929 117.235,261.979 117.402,261.979 119.041 L 261.979 120.833 259.635 120.833 L 257.292 120.833 257.292 119.193 C 257.292 116.998,258.581 116.338,261.393 117.091 M162.711 117.898 C 167.846 119.953,168.435 125.840,163.707 127.848 L 162.687 128.281 163.831 128.619 C 169.360 130.254,168.951 137.860,163.232 139.751 C 162.107 140.122,160.671 140.225,155.534 140.303 L 149.219 140.398 149.219 128.768 L 149.219 117.139 155.273 117.242 C 160.694 117.334,161.473 117.403,162.711 117.898 M195.313 121.484 L 195.313 123.958 197.771 123.958 L 200.229 123.958 200.404 125.127 C 200.689 127.029,200.616 127.083,197.777 127.083 L 195.278 127.083 195.360 131.505 C 195.467 137.222,196.050 137.989,199.674 137.181 L 200.521 136.992 200.521 138.660 L 200.521 140.328 199.054 140.632 C 193.150 141.858,190.901 139.398,190.891 131.706 L 190.885 127.083 189.453 127.083 L 188.021 127.083 188.021 125.521 L 188.021 123.958 189.453 123.958 L 190.885 123.958 190.885 122.028 L 190.885 120.097 192.513 119.581 C 195.390 118.669,195.313 118.617,195.313 121.484 M153.906 123.698 L 153.906 126.823 156.315 126.821 C 160.194 126.819,161.749 126.101,162.117 124.140 C 162.560 121.780,160.688 120.573,156.585 120.573 L 153.906 120.573 153.906 123.698 M182.206 124.266 C 185.427 125.452,185.934 126.852,185.936 134.570 L 185.938 140.365 183.854 140.365 L 181.771 140.365 181.771 139.335 L 181.771 138.305 181.115 138.961 C 177.278 142.798,169.383 140.285,169.854 135.377 C 170.182 131.968,173.450 130.216,179.492 130.210 L 181.510 130.208 181.510 129.431 C 181.510 126.650,177.034 125.971,172.226 128.023 C 171.615 128.284,170.942 125.495,171.514 125.076 C 173.524 123.605,179.235 123.173,182.206 124.266 M237.818 124.381 C 238.495 124.722,239.308 125.352,239.625 125.782 L 240.202 126.562 240.999 125.741 C 243.535 123.133,248.491 122.934,250.999 125.339 C 252.906 127.166,252.995 127.562,252.995 134.245 L 252.995 140.234 250.781 140.234 L 248.568 140.234 248.438 134.575 L 248.307 128.915 247.479 128.087 C 246.438 127.048,244.354 126.757,242.991 127.463 C 241.414 128.278,241.158 129.359,241.152 135.231 L 241.146 140.385 238.867 140.310 L 236.589 140.234 236.458 134.623 C 236.296 127.614,236.050 127.083,232.964 127.083 C 229.866 127.083,229.168 128.580,229.167 135.221 L 229.167 140.365 226.953 140.365 L 224.740 140.365 224.701 137.695 C 224.653 134.422,224.655 128.991,224.703 126.107 L 224.740 123.958 226.823 123.958 L 228.906 123.958 228.906 125.188 C 228.906 126.362,228.924 126.392,229.302 125.854 C 230.869 123.615,234.915 122.916,237.818 124.381 M344.129 123.832 C 347.777 124.433,349.758 126.846,349.949 130.924 L 350.062 133.333 343.646 133.333 L 337.230 133.333 337.396 134.049 C 338.109 137.122,342.710 138.431,346.974 136.775 C 348.792 136.068,348.707 136.015,348.885 137.979 L 349.027 139.541 347.365 140.050 C 339.334 142.509,332.756 138.970,332.701 132.161 C 332.664 127.510,335.486 124.332,340.209 123.708 C 341.792 123.499,342.181 123.512,344.129 123.832 M305.012 124.688 C 312.687 128.466,310.497 139.248,301.769 140.654 C 290.367 142.490,285.871 127.631,296.745 124.048 C 298.798 123.372,302.999 123.697,305.012 124.688 M325.612 124.016 C 328.888 124.998,329.688 127.115,329.688 134.813 L 329.688 140.365 327.492 140.365 L 325.297 140.365 325.214 134.831 C 325.148 130.459,325.048 129.171,324.740 128.696 C 323.087 126.155,318.941 126.711,317.642 129.647 C 317.168 130.717,317.129 131.262,317.219 135.530 L 317.318 140.234 315.104 140.234 L 312.891 140.234 312.822 132.086 L 312.753 123.937 314.905 124.013 L 317.057 124.089 317.138 125.210 L 317.219 126.332 317.725 125.689 C 319.077 123.970,322.813 123.178,325.612 124.016 M207.813 129.175 C 207.813 136.015,208.356 137.236,211.404 137.239 C 214.874 137.242,215.625 135.785,215.625 129.047 L 215.625 123.958 217.969 123.958 L 220.313 123.958 220.313 132.161 L 220.313 140.365 218.099 140.365 L 215.885 140.365 215.885 139.165 L 215.885 137.966 215.163 138.739 C 212.619 141.462,207.557 141.551,205.026 138.916 C 203.343 137.165,203.125 136.088,203.125 129.510 L 203.125 123.958 205.469 123.958 L 207.813 123.958 207.813 129.175 M261.979 132.172 L 261.979 140.385 259.701 140.310 L 257.422 140.234 257.353 132.096 L 257.284 123.958 259.632 123.958 L 261.979 123.958 261.979 132.172 M289.055 125.456 C 289.049 126.782,288.956 127.042,288.244 127.734 C 287.802 128.164,285.869 130.297,283.950 132.474 C 282.030 134.652,280.345 136.504,280.204 136.591 C 280.063 136.678,279.948 136.867,279.948 137.010 C 279.948 137.153,280.063 137.199,280.203 137.112 C 280.344 137.026,282.395 137.036,284.761 137.136 L 289.063 137.318 289.063 138.841 L 289.063 140.365 281.544 140.365 L 274.025 140.365 273.847 139.018 L 273.668 137.671 275.742 135.567 C 276.883 134.410,278.997 132.116,280.440 130.469 L 283.064 127.474 278.772 127.403 L 274.479 127.331 274.479 125.645 L 274.479 123.958 281.771 123.958 L 289.063 123.958 289.055 125.456 M298.528 127.122 C 292.688 128.433,294.974 138.319,300.901 137.383 C 306.213 136.544,306.530 128.310,301.297 127.104 C 299.962 126.797,299.974 126.797,298.528 127.122 M339.390 127.237 C 338.552 127.664,337.723 128.756,337.382 129.883 L 337.204 130.469 341.524 130.469 L 345.843 130.469 345.672 129.753 C 345.066 127.217,341.909 125.953,339.390 127.237 M153.906 133.436 L 153.906 136.979 156.976 136.979 C 161.393 136.979,163.008 136.074,163.016 133.594 C 163.024 131.146,161.331 130.139,156.966 129.994 L 153.906 129.893 153.906 133.436 M111.890 131.445 C 111.746 131.681,111.324 134.631,111.369 135.091 C 111.386 135.270,111.296 135.417,111.169 135.417 C 111.042 135.417,110.938 135.557,110.938 135.728 C 110.938 135.899,111.342 135.647,111.837 135.168 C 112.541 134.486,112.683 134.196,112.491 133.838 C 112.243 133.375,112.567 133.277,113.151 133.640 C 113.294 133.728,113.822 133.455,114.323 133.033 C 114.824 132.611,115.053 132.333,114.832 132.416 C 114.590 132.507,114.201 132.304,113.857 131.908 C 113.316 131.286,112.155 131.013,111.890 131.445 M113.931 133.075 C 113.671 133.362,113.406 133.545,113.343 133.482 C 113.191 133.330,113.868 132.575,114.168 132.562 C 114.298 132.557,114.191 132.787,113.931 133.075 M177.310 133.077 C 173.207 133.771,173.387 137.760,177.521 137.760 C 179.857 137.760,181.510 136.288,181.510 134.207 L 181.510 132.813 180.013 132.843 C 179.189 132.860,177.973 132.965,177.310 133.077 M270.851 136.914 C 270.932 137.523,270.932 138.519,270.851 139.128 L 270.703 140.234 268.773 140.312 C 266.476 140.404,266.416 140.345,266.410 138.008 C 266.405 135.808,266.589 135.638,268.877 135.732 L 270.703 135.807 270.851 136.914 M80.456 141.276 C 80.426 141.419,80.378 141.829,80.350 142.188 C 80.321 142.546,80.216 143.249,80.116 143.750 C 79.982 144.417,80.110 144.248,80.592 143.120 C 81.327 141.398,81.349 141.314,81.012 141.523 C 80.881 141.604,80.714 141.523,80.642 141.343 C 80.569 141.163,80.486 141.133,80.456 141.276 M72.656 146.253 C 70.371 146.749,68.083 147.544,66.667 148.335 C 66.022 148.694,65.729 148.913,66.016 148.821 C 66.906 148.535,69.895 147.926,70.443 147.920 C 70.729 147.916,71.286 147.745,71.680 147.540 C 72.074 147.334,72.396 147.277,72.396 147.411 C 72.396 147.546,72.521 147.656,72.674 147.656 C 72.833 147.656,72.881 147.434,72.787 147.137 C 72.654 146.717,72.713 146.650,73.095 146.788 C 73.374 146.888,73.477 146.861,73.348 146.721 C 73.219 146.583,73.759 146.361,74.650 146.187 C 75.802 145.962,75.951 145.890,75.260 145.888 C 74.759 145.887,73.587 146.051,72.656 146.253 " stroke="none" fill="#fbfbfb" fill-rule="evenodd"></path><path id="path2" d="M52.640 95.782 C 52.360 96.025,51.769 96.927,51.327 97.786 L 50.522 99.349 50.521 115.169 L 50.521 130.990 51.563 130.990 C 52.135 130.990,52.605 131.077,52.605 131.185 C 52.605 131.292,52.957 131.615,53.385 131.901 C 54.020 132.325,54.165 132.604,54.166 133.398 C 54.167 134.308,54.220 134.375,54.941 134.375 L 55.716 134.375 55.788 130.154 L 55.859 125.932 56.706 125.759 C 58.418 125.410,59.635 126.357,59.635 128.039 L 59.635 129.460 60.482 129.378 L 61.328 129.297 61.398 123.417 L 61.468 117.538 63.149 115.946 C 64.073 115.071,64.999 113.966,65.206 113.492 C 65.446 112.942,65.590 112.801,65.604 113.103 C 65.626 113.589,66.311 114.601,68.030 116.683 L 69.010 117.872 69.036 124.105 C 69.051 127.534,69.143 130.046,69.242 129.688 C 69.378 129.193,69.622 129.017,70.258 128.955 L 71.094 128.873 71.094 117.431 C 71.094 108.706,71.168 105.990,71.406 105.990 C 72.682 105.990,70.719 105.364,68.963 105.211 L 66.797 105.023 68.750 104.955 C 69.824 104.918,70.469 104.829,70.182 104.757 C 69.896 104.686,69.603 104.553,69.531 104.462 C 69.334 104.212,67.750 103.125,67.582 103.125 C 67.502 103.125,66.839 102.715,66.110 102.214 C 65.382 101.712,64.870 101.302,64.973 101.302 C 65.315 101.302,63.159 99.491,62.810 99.485 C 62.623 99.482,62.529 99.383,62.602 99.264 C 62.675 99.146,62.242 98.793,61.641 98.479 C 61.039 98.166,59.905 97.559,59.120 97.132 C 58.335 96.704,57.492 96.354,57.247 96.354 C 57.002 96.354,56.737 96.250,56.659 96.123 C 56.524 95.905,55.422 95.633,53.853 95.431 C 53.449 95.379,52.932 95.529,52.640 95.782 M96.094 105.686 C 96.094 106.592,96.208 107.292,96.356 107.292 C 96.522 107.292,96.557 106.739,96.450 105.794 C 96.224 103.781,96.094 103.741,96.094 105.686 M77.634 105.143 C 77.609 105.645,77.735 105.729,78.516 105.729 L 79.427 105.729 79.442 114.518 C 79.458 123.799,79.683 127.201,80.026 123.333 C 80.126 122.201,80.208 120.590,80.208 119.752 C 80.208 118.572,80.296 118.229,80.599 118.229 C 80.928 118.229,80.990 117.636,80.990 114.457 L 80.990 110.684 81.952 110.282 C 82.685 109.976,83.096 109.944,83.683 110.148 C 84.745 110.519,84.850 110.486,84.155 109.999 C 83.577 109.594,82.959 109.605,81.921 110.038 C 81.524 110.203,81.454 110.159,81.581 109.828 C 81.685 109.556,81.384 109.018,80.727 108.299 C 80.107 107.621,79.683 106.880,79.635 106.394 C 79.568 105.710,79.441 105.588,78.727 105.519 C 78.214 105.469,77.853 105.270,77.781 104.998 C 77.698 104.685,77.656 104.727,77.634 105.143 M96.199 111.719 C 96.199 113.939,96.239 114.847,96.287 113.737 C 96.336 112.627,96.336 110.811,96.287 109.701 C 96.239 108.590,96.199 109.499,96.199 111.719 M88.542 110.402 C 87.608 110.550,87.311 111.797,88.093 112.283 C 88.272 112.394,88.349 113.541,88.307 115.473 C 88.272 117.132,88.295 118.490,88.360 118.490 C 88.425 118.490,88.906 118.311,89.428 118.092 L 90.379 117.695 90.307 114.015 C 90.227 109.978,90.299 110.124,88.542 110.402 M68.099 135.964 C 66.953 136.083,65.430 136.307,64.714 136.462 C 58.346 137.835,56.669 138.388,52.975 140.331 L 50.651 141.554 50.574 143.173 C 50.482 145.077,50.218 144.992,54.391 144.399 C 57.576 143.946,59.681 143.348,63.505 141.811 C 66.742 140.510,70.461 139.509,72.081 139.501 C 72.822 139.498,73.085 139.417,72.862 139.261 C 72.659 139.119,73.041 139.108,73.828 139.235 C 74.544 139.350,75.849 139.414,76.728 139.378 C 77.606 139.342,78.638 139.432,79.021 139.578 C 79.404 139.723,79.653 139.738,79.574 139.610 C 79.495 139.482,79.634 139.290,79.884 139.184 C 80.275 139.018,80.248 138.963,79.688 138.792 L 79.036 138.594 79.746 138.568 C 80.489 138.540,81.390 137.328,81.036 136.832 C 80.937 136.693,78.959 136.586,76.526 136.587 C 72.763 136.588,72.126 136.529,71.688 136.133 C 71.142 135.641,71.180 135.642,68.099 135.964 M74.479 137.881 C 74.479 137.947,73.981 138.126,73.372 138.279 C 72.764 138.432,71.553 138.788,70.682 139.071 C 69.811 139.354,68.639 139.632,68.078 139.690 C 67.517 139.748,66.851 139.878,66.599 139.979 C 65.816 140.292,66.356 139.397,67.302 138.812 C 68.597 138.011,74.479 137.248,74.479 137.881 M128.959 139.962 C 128.581 140.791,125.958 142.049,123.508 142.575 C 122.395 142.814,121.133 143.097,120.703 143.203 C 116.542 144.235,104.593 142.923,101.172 141.058 C 100.885 140.901,100.592 140.765,100.521 140.754 C 100.449 140.743,99.712 140.476,98.883 140.159 C 96.039 139.073,91.959 139.529,90.296 141.119 C 90.091 141.315,95.767 143.932,96.144 143.815 C 96.259 143.779,96.354 143.856,96.354 143.986 C 96.354 144.116,96.607 144.156,96.916 144.075 C 97.334 143.966,97.423 144.016,97.266 144.270 C 97.134 144.484,97.157 144.549,97.327 144.443 C 97.573 144.292,99.942 144.994,100.260 145.313 C 100.332 145.384,100.684 145.484,101.042 145.535 C 101.400 145.585,101.767 145.747,101.859 145.894 C 101.950 146.040,102.155 146.080,102.315 145.982 C 102.474 145.883,102.604 145.939,102.604 146.106 C 102.604 146.273,102.776 146.344,102.986 146.263 C 103.197 146.183,103.431 146.217,103.506 146.339 C 103.684 146.627,106.202 147.242,106.966 147.185 C 107.288 147.161,107.552 147.228,107.552 147.334 C 107.552 147.439,108.567 147.491,109.808 147.449 C 111.440 147.394,112.123 147.466,112.278 147.710 C 112.443 147.970,112.493 147.973,112.496 147.721 C 112.498 147.542,112.683 147.396,112.906 147.396 C 113.129 147.396,113.251 147.297,113.176 147.175 C 113.020 146.924,117.639 147.074,119.792 147.391 C 120.579 147.507,121.341 147.528,121.484 147.438 C 121.901 147.175,124.853 147.224,125.042 147.496 C 125.517 148.177,128.781 147.215,130.692 145.830 C 133.227 143.994,133.076 141.784,130.295 140.029 L 129.234 139.359 128.959 139.962 M74.349 142.373 C 74.063 142.442,73.711 142.622,73.568 142.772 C 73.388 142.960,73.460 142.991,73.800 142.871 C 74.211 142.725,74.240 142.760,73.974 143.080 C 73.601 143.529,74.857 143.406,76.693 142.812 L 77.734 142.476 76.758 142.621 C 76.128 142.715,75.781 142.664,75.781 142.477 C 75.781 142.183,75.289 142.147,74.349 142.373 M63.021 144.227 C 63.021 144.347,62.874 144.461,62.695 144.481 C 62.516 144.501,61.901 144.624,61.328 144.755 L 60.286 144.992 61.328 144.999 C 62.669 145.009,65.194 144.621,64.323 144.540 L 63.672 144.479 64.323 144.271 C 64.904 144.085,64.869 144.060,63.997 144.036 C 63.460 144.022,63.021 144.108,63.021 144.227 M133.315 146.016 C 130.592 150.206,121.619 151.696,108.333 150.163 C 105.803 149.871,87.573 149.331,83.333 149.422 C 82.621 149.437,82.007 148.978,81.171 147.805 C 80.829 147.325,80.767 147.115,81.003 147.238 C 81.211 147.346,81.177 147.268,80.929 147.064 C 80.680 146.860,80.534 146.637,80.603 146.567 C 80.780 146.390,79.942 146.362,79.180 146.519 C 78.713 146.615,78.636 146.708,78.893 146.867 C 79.878 147.475,78.923 147.840,75.870 148.020 C 69.890 148.374,67.048 148.638,66.174 148.919 C 65.688 149.076,65.199 149.147,65.088 149.078 C 64.976 149.009,63.909 149.619,62.716 150.433 L 60.547 151.913 55.535 151.933 L 50.522 151.953 50.522 154.090 L 50.521 156.226 51.438 156.398 C 52.802 156.654,55.902 156.303,60.286 155.395 C 65.394 154.337,72.518 154.221,76.432 155.132 L 78.776 155.677 77.344 155.744 C 76.556 155.781,75.736 155.797,75.521 155.780 C 74.838 155.726,67.621 156.520,66.536 156.770 C 65.725 156.956,65.984 156.982,67.708 156.888 C 77.866 156.335,79.786 156.414,87.423 157.698 C 91.936 158.456,98.469 158.495,98.015 157.761 C 97.900 157.575,98.137 157.525,98.726 157.612 C 99.632 157.745,103.492 156.823,107.422 155.536 C 109.418 154.883,109.774 154.852,115.885 154.806 C 126.543 154.724,134.395 151.196,134.371 146.498 C 134.364 145.104,134.012 144.943,133.315 146.016 M74.708 149.762 C 75.621 149.908,77.160 150.425,78.127 150.912 C 79.094 151.400,79.977 151.716,80.089 151.615 C 80.200 151.515,80.195 151.599,80.077 151.802 C 79.916 152.080,79.974 152.129,80.309 152.000 C 80.555 151.906,80.693 151.931,80.616 152.056 C 80.475 152.284,81.991 153.042,82.357 152.927 C 82.464 152.892,82.552 152.994,82.552 153.153 C 82.552 153.311,82.722 153.376,82.930 153.296 C 83.138 153.216,84.105 153.429,85.079 153.770 C 86.052 154.110,86.673 154.409,86.458 154.433 C 85.499 154.544,91.513 156.047,94.732 156.500 L 96.484 156.747 94.531 156.643 C 92.363 156.527,87.384 155.587,83.594 154.579 C 79.939 153.606,67.980 152.145,63.216 152.089 C 62.243 152.077,62.847 151.602,64.831 150.818 C 65.969 150.368,67.082 150.000,67.305 150.000 C 67.527 150.000,67.708 149.881,67.708 149.735 C 67.708 149.585,67.979 149.537,68.331 149.626 C 68.673 149.711,69.016 149.680,69.093 149.556 C 69.262 149.282,72.424 149.398,74.708 149.762 M90.999 150.689 C 93.426 151.050,96.824 151.700,98.552 152.134 C 100.279 152.568,102.572 152.956,103.646 152.996 C 104.720 153.036,105.892 153.202,106.250 153.364 C 106.924 153.670,105.557 153.612,103.711 153.258 C 103.142 153.149,103.179 153.192,103.890 153.466 L 104.785 153.811 103.499 154.184 C 100.068 155.180,91.857 154.531,87.250 152.900 C 86.039 152.471,84.937 152.188,84.801 152.272 C 84.666 152.356,84.627 152.308,84.715 152.165 C 84.803 152.022,84.532 151.652,84.113 151.342 C 81.694 149.554,82.719 149.457,90.999 150.689 M115.885 157.970 C 113.040 158.468,110.955 158.623,104.948 158.778 C 98.391 158.948,97.830 158.994,100.130 159.174 C 105.771 159.615,115.296 158.924,118.686 157.828 C 120.629 157.199,120.152 157.223,115.885 157.970 " stroke="none" fill="#5acefa" fill-rule="evenodd"></path><path id="path3" d="M54.222 92.742 C 53.697 92.893,53.436 93.100,53.547 93.279 C 53.656 93.457,53.608 93.497,53.424 93.383 C 52.366 92.729,50.521 95.564,50.521 97.841 L 50.522 99.349 51.327 97.786 C 52.601 95.313,52.838 95.196,55.537 95.707 C 56.075 95.809,56.580 95.996,56.659 96.123 C 56.737 96.250,57.002 96.354,57.247 96.354 C 57.492 96.354,58.335 96.704,59.120 97.132 C 59.905 97.559,61.039 98.166,61.641 98.479 C 62.242 98.793,62.675 99.146,62.602 99.264 C 62.529 99.383,62.623 99.482,62.810 99.485 C 63.159 99.491,65.315 101.302,64.973 101.302 C 64.870 101.302,65.382 101.712,66.110 102.214 C 66.839 102.715,67.502 103.125,67.582 103.125 C 67.750 103.125,69.334 104.212,69.531 104.462 C 69.603 104.553,69.896 104.686,70.182 104.757 C 70.469 104.829,69.824 104.918,68.750 104.955 L 66.797 105.023 68.940 105.210 C 70.119 105.313,71.281 105.560,71.522 105.758 C 71.864 106.041,71.984 106.048,72.070 105.793 C 72.130 105.613,72.287 105.532,72.418 105.613 C 72.553 105.696,72.656 105.003,72.656 104.014 C 72.656 102.392,72.724 102.185,73.600 101.116 C 74.175 100.413,74.668 99.439,74.864 98.615 L 75.184 97.266 75.384 98.616 C 75.527 99.582,75.872 100.351,76.594 101.312 C 77.264 102.204,77.605 102.932,77.608 103.477 C 77.614 104.998,77.855 105.434,78.738 105.519 C 79.440 105.588,79.568 105.713,79.635 106.394 C 79.683 106.880,80.107 107.621,80.727 108.299 C 81.285 108.909,81.683 109.562,81.611 109.749 C 81.539 109.936,81.669 110.161,81.900 110.250 C 82.177 110.356,82.256 110.308,82.132 110.109 C 82.007 109.906,82.092 109.863,82.393 109.979 C 82.676 110.087,82.777 110.049,82.668 109.873 C 82.558 109.695,82.764 109.626,83.241 109.681 C 83.651 109.727,83.957 109.907,83.922 110.082 C 83.884 110.277,84.025 110.335,84.291 110.233 C 84.558 110.130,84.656 110.172,84.551 110.343 C 84.457 110.494,84.614 110.679,84.899 110.753 C 85.184 110.828,85.417 110.794,85.417 110.678 C 85.417 110.562,85.948 110.628,86.598 110.823 C 87.248 111.019,87.715 111.074,87.635 110.946 C 87.417 110.593,87.836 110.431,89.162 110.355 L 90.364 110.286 90.366 107.422 L 90.367 104.557 92.860 103.026 L 95.352 101.495 98.848 103.213 L 102.344 104.930 102.344 108.954 C 102.344 112.916,102.484 114.158,102.861 113.547 C 102.994 113.332,103.509 113.407,104.713 113.817 C 106.179 114.316,106.742 114.367,109.383 114.239 C 113.712 114.030,118.887 114.453,122.005 115.271 C 126.649 116.489,126.746 116.429,127.012 112.183 C 127.366 106.541,124.735 101.200,119.922 97.788 C 118.235 96.592,116.516 95.639,116.761 96.036 C 116.947 96.337,115.870 96.240,115.202 95.895 C 114.399 95.481,111.260 95.255,111.145 95.603 C 110.959 96.158,96.929 95.911,95.450 95.327 C 94.791 95.066,94.628 95.088,94.344 95.477 C 94.154 95.737,94.010 95.795,94.010 95.613 C 94.010 95.383,93.697 95.341,92.904 95.462 C 92.295 95.556,91.533 95.648,91.211 95.668 C 90.802 95.692,90.625 95.867,90.625 96.246 C 90.625 97.301,90.239 97.155,89.978 96.002 L 89.714 94.833 88.723 95.177 C 87.820 95.491,87.705 95.477,87.423 95.026 C 87.096 94.502,86.078 94.354,85.807 94.792 C 85.719 94.935,85.002 95.052,84.214 95.052 C 83.326 95.052,82.843 94.953,82.943 94.792 C 83.038 94.637,82.728 94.531,82.177 94.531 C 81.667 94.531,81.250 94.636,81.250 94.764 C 81.250 95.118,80.589 95.295,79.922 95.121 C 79.359 94.974,79.354 94.953,79.832 94.766 C 80.186 94.628,79.946 94.551,79.036 94.510 C 78.320 94.479,77.207 94.430,76.563 94.401 C 75.918 94.373,74.365 94.332,73.112 94.310 C 70.651 94.268,70.026 93.824,71.680 93.293 C 72.311 93.091,70.276 93.002,63.672 92.944 C 57.781 92.892,55.776 92.813,57.682 92.708 L 60.547 92.551 57.813 92.523 C 56.309 92.507,54.693 92.606,54.222 92.742 M71.921 92.643 C 77.317 92.682,86.223 92.682,91.712 92.643 C 97.202 92.604,92.786 92.572,81.901 92.572 C 71.016 92.572,66.525 92.604,71.921 92.643 M115.625 117.469 C 104.642 118.393,93.205 124.902,86.149 134.245 C 82.207 139.466,79.355 145.535,80.509 146.249 C 80.687 146.359,80.739 146.321,80.638 146.156 C 80.543 146.003,80.564 145.839,80.685 145.790 C 80.806 145.742,81.480 144.666,82.183 143.399 C 84.227 139.711,86.333 137.672,92.438 133.470 C 95.564 131.318,97.128 130.434,97.454 130.635 C 97.610 130.731,97.666 130.695,97.579 130.555 C 97.492 130.414,97.924 130.056,98.537 129.758 C 99.810 129.139,100.155 129.616,99.110 130.550 C 98.680 130.934,98.736 130.924,99.378 130.499 C 99.824 130.204,100.255 130.029,100.335 130.110 C 100.416 130.190,100.696 130.119,100.957 129.952 C 101.353 129.699,101.359 129.671,100.990 129.785 C 100.678 129.881,100.591 129.808,100.695 129.536 C 100.791 129.286,101.038 129.206,101.398 129.306 C 101.839 129.429,101.873 129.405,101.563 129.188 C 101.169 128.912,101.483 128.759,102.180 128.886 C 102.305 128.909,102.342 128.757,102.262 128.548 C 102.182 128.339,102.294 128.100,102.512 128.016 C 103.127 127.780,103.295 127.844,102.865 128.151 C 102.570 128.360,102.715 128.395,103.456 128.292 C 104.009 128.216,104.375 128.259,104.294 128.390 C 104.214 128.519,104.504 128.501,104.939 128.350 C 105.373 128.198,105.671 127.981,105.600 127.867 C 105.530 127.752,105.653 127.589,105.874 127.504 C 106.105 127.416,106.209 127.460,106.118 127.607 C 105.892 127.973,106.226 127.926,106.615 127.537 C 106.795 127.356,106.896 127.070,106.840 126.899 C 106.776 126.707,107.558 126.339,108.902 125.929 C 111.496 125.138,113.583 124.722,113.390 125.035 C 113.261 125.244,113.647 125.372,114.147 125.285 C 114.265 125.264,114.287 125.368,114.197 125.514 C 114.106 125.661,114.227 125.781,114.466 125.781 C 114.712 125.781,114.844 125.637,114.771 125.446 C 114.700 125.261,114.832 125.104,115.069 125.093 C 115.303 125.083,115.671 125.019,115.885 124.950 C 116.100 124.881,116.182 124.876,116.067 124.939 C 115.405 125.299,116.850 125.669,118.193 125.483 C 119.001 125.371,120.274 125.350,121.023 125.435 C 122.129 125.562,122.415 125.513,122.546 125.173 C 122.687 124.805,123.204 124.773,126.913 124.905 C 132.219 125.093,133.573 125.359,130.469 125.603 C 124.962 126.037,120.354 127.473,118.863 129.219 C 118.520 129.620,118.498 129.702,118.792 129.475 C 119.334 129.057,119.598 129.422,119.409 130.327 C 119.333 130.691,119.213 131.272,119.141 131.617 L 119.012 132.245 120.378 131.488 C 122.446 130.343,127.709 128.713,131.164 128.149 C 137.866 127.054,138.864 126.496,136.967 124.899 C 135.410 123.589,134.046 123.369,126.997 123.291 C 121.287 123.228,120.472 123.166,120.031 122.767 C 119.014 121.847,119.915 120.573,121.581 120.573 C 122.231 120.573,122.325 120.656,122.204 121.120 C 121.937 122.140,123.677 122.345,128.856 121.906 L 130.760 121.745 129.980 120.570 C 129.124 119.280,127.129 117.868,126.068 117.801 C 125.695 117.778,124.398 117.630,123.184 117.473 C 120.752 117.158,119.322 117.158,115.625 117.469 M150.326 117.377 C 150.863 117.433,151.742 117.433,152.279 117.377 C 152.816 117.321,152.376 117.275,151.302 117.275 C 150.228 117.275,149.788 117.321,150.326 117.377 M155.794 117.374 C 156.188 117.434,156.833 117.434,157.227 117.374 C 157.620 117.314,157.298 117.266,156.510 117.266 C 155.723 117.266,155.400 117.314,155.794 117.374 M110.286 119.794 C 104.398 121.312,100.542 123.183,95.610 126.915 C 92.059 129.602,91.903 129.683,93.490 128.026 C 97.291 124.055,104.179 120.515,110.286 119.392 C 113.318 118.835,113.318 119.012,110.286 119.794 M190.963 121.615 C 190.963 122.402,191.012 122.725,191.072 122.331 C 191.132 121.937,191.132 121.292,191.072 120.898 C 191.012 120.505,190.963 120.827,190.963 121.615 M88.219 122.059 C 88.543 122.121,89.012 122.119,89.261 122.054 C 89.510 121.989,89.245 121.938,88.672 121.941 C 88.099 121.944,87.895 121.997,88.219 122.059 M278.076 124.153 C 280.125 124.197,283.407 124.197,285.367 124.153 C 287.328 124.109,285.651 124.073,281.641 124.073 C 277.630 124.073,276.026 124.109,278.076 124.153 M313.607 124.145 C 314.001 124.205,314.645 124.205,315.039 124.145 C 315.433 124.085,315.111 124.036,314.323 124.036 C 313.535 124.036,313.213 124.085,313.607 124.145 M220.155 127.995 C 220.155 130.000,220.196 130.786,220.246 129.741 C 220.295 128.697,220.295 127.056,220.245 126.095 C 220.195 125.135,220.154 125.990,220.155 127.995 M337.074 124.868 C 336.992 125.082,336.832 125.200,336.719 125.130 C 336.606 125.060,336.443 125.186,336.357 125.409 C 336.272 125.632,336.102 125.753,335.981 125.678 C 335.859 125.603,335.360 125.954,334.872 126.458 C 333.983 127.377,334.445 127.503,335.472 126.622 C 335.717 126.411,336.104 126.310,336.332 126.398 C 336.560 126.485,336.680 126.450,336.599 126.319 C 336.518 126.188,336.652 126.042,336.898 125.995 C 337.177 125.942,337.357 125.642,337.381 125.194 C 337.424 124.402,337.302 124.274,337.074 124.868 M123.372 125.184 C 123.695 125.246,124.222 125.246,124.544 125.184 C 124.867 125.122,124.603 125.071,123.958 125.071 C 123.314 125.071,123.050 125.122,123.372 125.184 M294.650 125.241 C 294.745 125.395,294.698 125.535,294.547 125.553 C 293.889 125.631,293.786 125.658,293.654 125.791 C 293.428 126.016,294.807 126.059,295.200 125.839 C 295.484 125.680,295.446 125.567,295.018 125.300 C 294.720 125.114,294.555 125.087,294.650 125.241 M113.028 125.771 C 112.818 125.904,112.724 126.092,112.821 126.189 C 112.917 126.285,113.186 126.174,113.418 125.942 C 113.876 125.484,113.644 125.382,113.028 125.771 M215.699 127.214 C 215.701 127.930,215.752 128.192,215.812 127.796 C 215.872 127.400,215.870 126.814,215.808 126.494 C 215.747 126.174,215.698 126.497,215.699 127.214 M110.807 127.344 C 110.479 127.485,110.431 127.568,110.677 127.568 C 110.892 127.568,111.302 127.467,111.589 127.344 C 111.917 127.203,111.965 127.120,111.719 127.120 C 111.504 127.120,111.094 127.221,110.807 127.344 M318.343 127.623 C 317.908 128.103,317.514 129.187,317.923 128.778 C 318.020 128.682,318.099 128.466,318.099 128.299 C 318.099 128.132,318.240 127.995,318.411 127.995 C 318.871 127.995,319.365 127.433,319.068 127.249 C 318.931 127.165,318.605 127.333,318.343 127.623 M337.749 127.611 C 337.549 127.735,337.582 127.840,337.850 127.943 C 338.066 128.026,338.367 127.945,338.518 127.762 C 338.825 127.393,338.277 127.285,337.749 127.611 M303.125 127.686 C 303.125 127.730,303.506 128.111,303.971 128.532 L 304.818 129.297 304.053 128.451 C 303.340 127.662,303.125 127.484,303.125 127.686 M105.685 128.478 C 104.385 128.884,104.276 129.063,105.330 129.063 C 105.818 129.063,106.151 128.956,106.070 128.826 C 105.988 128.693,106.194 128.666,106.543 128.765 C 107.043 128.907,107.087 128.883,106.771 128.642 C 106.460 128.404,106.540 128.376,107.161 128.502 C 107.737 128.620,107.840 128.592,107.552 128.397 C 107.087 128.083,106.930 128.089,105.685 128.478 M285.791 130.013 L 285.026 130.859 285.872 130.095 C 286.338 129.674,286.719 129.293,286.719 129.248 C 286.719 129.047,286.504 129.224,285.791 130.013 M336.983 130.273 C 336.980 130.580,337.171 130.722,337.565 130.709 C 337.957 130.695,338.021 130.639,337.760 130.539 C 337.546 130.458,337.284 130.262,337.178 130.104 C 337.060 129.927,336.986 129.992,336.983 130.273 M349.814 131.120 C 349.816 131.836,349.867 132.098,349.926 131.702 C 349.986 131.306,349.985 130.720,349.923 130.400 C 349.861 130.080,349.812 130.404,349.814 131.120 M101.467 130.614 C 100.914 130.817,100.339 130.908,100.190 130.816 C 100.021 130.711,99.999 130.778,100.133 130.994 C 100.287 131.244,100.227 131.293,99.913 131.172 C 99.675 131.081,99.216 131.112,98.894 131.242 C 98.354 131.459,98.348 131.479,98.828 131.502 C 99.309 131.524,99.314 131.547,98.891 131.793 C 98.639 131.939,98.299 131.976,98.135 131.875 C 97.966 131.771,97.907 131.804,97.998 131.953 C 98.088 132.097,97.842 132.358,97.453 132.533 C 95.659 133.338,92.723 135.230,92.879 135.482 C 92.980 135.646,92.925 135.681,92.743 135.568 C 92.002 135.110,86.061 140.081,83.854 143.006 C 83.224 143.841,83.257 143.830,84.896 142.648 C 85.827 141.976,87.818 140.690,89.322 139.789 C 90.825 138.888,92.269 137.937,92.532 137.675 C 92.794 137.413,93.182 137.266,93.393 137.347 C 93.640 137.441,93.710 137.386,93.591 137.192 C 93.465 136.989,93.550 136.947,93.851 137.062 C 94.152 137.178,94.237 137.135,94.111 136.932 C 93.986 136.729,94.071 136.686,94.372 136.802 C 94.673 136.917,94.758 136.875,94.632 136.672 C 94.507 136.468,94.592 136.426,94.893 136.541 C 95.194 136.657,95.279 136.614,95.153 136.411 C 95.027 136.208,95.112 136.165,95.414 136.281 C 95.715 136.396,95.800 136.354,95.674 136.151 C 95.556 135.960,95.623 135.901,95.856 135.990 C 96.107 136.087,96.224 135.943,96.224 135.539 C 96.224 135.212,96.136 135.000,96.029 135.066 C 95.921 135.133,95.833 135.063,95.833 134.911 C 95.833 134.509,94.892 134.574,93.932 135.042 L 93.099 135.448 93.750 134.916 C 94.318 134.452,100.531 131.270,102.344 130.515 C 103.314 130.111,102.629 130.188,101.467 130.614 M279.805 131.315 L 278.776 132.422 279.883 131.392 C 280.492 130.826,280.990 130.328,280.990 130.286 C 280.990 130.089,280.763 130.286,279.805 131.315 M317.020 132.422 C 317.019 133.711,317.063 134.271,317.117 133.667 C 317.172 133.062,317.173 132.008,317.119 131.323 C 317.065 130.638,317.020 131.133,317.020 132.422 M325.338 131.510 C 325.338 132.298,325.387 132.620,325.447 132.227 C 325.507 131.833,325.507 131.188,325.447 130.794 C 325.387 130.400,325.338 130.723,325.338 131.510 M345.182 130.469 L 344.401 130.668 345.102 130.698 C 345.487 130.715,345.875 130.612,345.964 130.469 C 346.052 130.326,346.088 130.222,346.044 130.239 C 346.000 130.256,345.612 130.359,345.182 130.469 M290.703 132.292 C 290.703 133.079,290.752 133.402,290.812 133.008 C 290.871 132.614,290.871 131.969,290.812 131.576 C 290.752 131.182,290.703 131.504,290.703 132.292 M309.453 132.292 C 309.453 133.079,309.502 133.402,309.562 133.008 C 309.621 132.614,309.621 131.969,309.562 131.576 C 309.502 131.182,309.453 131.504,309.453 132.292 M339.013 131.256 C 339.773 131.367,340.710 131.362,341.096 131.246 C 341.586 131.098,341.170 131.037,339.714 131.044 C 337.697 131.054,337.675 131.061,339.013 131.256 M113.863 133.718 C 109.078 137.795,109.915 139.188,114.777 135.240 C 115.782 134.424,117.934 131.700,117.231 132.135 C 117.043 132.251,116.986 132.180,117.078 131.941 C 117.462 130.941,116.494 131.476,113.863 133.718 M215.703 132.552 C 215.703 133.340,215.752 133.662,215.812 133.268 C 215.871 132.874,215.871 132.230,215.812 131.836 C 215.752 131.442,215.703 131.764,215.703 132.552 M261.779 132.552 C 261.779 133.053,261.833 133.258,261.898 133.008 C 261.964 132.757,261.964 132.347,261.898 132.096 C 261.833 131.846,261.779 132.051,261.779 132.552 M283.499 132.443 C 283.088 132.804,282.804 133.151,282.867 133.214 C 282.929 133.277,283.316 132.978,283.727 132.549 C 284.633 131.603,284.516 131.549,283.499 132.443 M338.997 132.740 C 339.463 132.798,340.225 132.798,340.690 132.740 C 341.156 132.683,340.775 132.635,339.844 132.635 C 338.913 132.635,338.532 132.683,338.997 132.740 M278.190 133.249 C 277.868 133.473,277.604 133.782,277.604 133.934 C 277.604 134.087,277.340 134.501,277.018 134.856 C 276.565 135.354,276.533 135.464,276.878 135.340 C 277.171 135.235,277.498 135.400,277.827 135.819 C 278.104 136.171,278.459 136.458,278.616 136.458 C 278.773 136.458,279.048 136.693,279.227 136.979 C 279.406 137.266,279.729 137.498,279.945 137.496 C 280.242 137.493,280.258 137.441,280.010 137.284 C 279.766 137.129,279.847 136.920,280.328 136.468 C 280.960 135.874,280.997 135.130,280.368 135.652 C 279.777 136.143,279.039 135.883,279.005 135.171 C 278.983 134.710,278.776 132.589,278.776 132.827 C 278.776 132.834,278.512 133.024,278.190 133.249 M347.985 133.260 C 348.381 133.320,348.967 133.318,349.287 133.256 C 349.608 133.194,349.284 133.145,348.568 133.147 C 347.852 133.149,347.590 133.200,347.985 133.260 M220.153 136.849 C 220.154 138.711,220.195 139.438,220.245 138.466 C 220.296 137.493,220.295 135.970,220.245 135.080 C 220.194 134.191,220.153 134.987,220.153 136.849 M325.362 136.849 C 325.362 138.711,325.404 139.438,325.454 138.466 C 325.504 137.493,325.504 135.970,325.453 135.080 C 325.402 134.191,325.361 134.987,325.362 136.849 M303.499 136.263 L 302.734 137.109 303.581 136.345 C 304.370 135.632,304.547 135.417,304.346 135.417 C 304.301 135.417,303.920 135.798,303.499 136.263 M267.908 135.866 C 268.376 135.924,269.079 135.923,269.471 135.863 C 269.862 135.804,269.479 135.756,268.620 135.758 C 267.760 135.759,267.440 135.808,267.908 135.866 M280.216 136.320 C 279.659 136.913,278.961 137.002,279.311 136.436 C 279.394 136.300,279.559 136.249,279.676 136.321 C 279.793 136.393,280.034 136.278,280.211 136.065 C 280.388 135.852,280.597 135.677,280.676 135.677 C 280.755 135.677,280.548 135.966,280.216 136.320 M307.017 137.956 L 306.120 138.932 307.096 138.035 C 308.005 137.200,308.193 136.979,307.994 136.979 C 307.950 136.979,307.511 137.419,307.017 137.956 M283.789 137.432 C 284.684 137.483,286.149 137.483,287.044 137.432 C 287.939 137.382,287.207 137.340,285.417 137.340 C 283.626 137.340,282.894 137.382,283.789 137.432 M299.678 137.684 C 300.001 137.746,300.470 137.744,300.719 137.679 C 300.968 137.614,300.703 137.563,300.130 137.566 C 299.557 137.569,299.354 137.622,299.678 137.684 M215.956 139.063 C 215.956 139.707,216.007 139.971,216.069 139.648 C 216.131 139.326,216.131 138.799,216.069 138.477 C 216.007 138.154,215.956 138.418,215.956 139.063 M181.870 139.193 L 181.901 140.234 183.724 140.251 L 185.547 140.269 183.804 140.175 L 182.061 140.082 181.950 139.116 L 181.839 138.151 181.870 139.193 M73.327 138.993 C 72.873 139.060,72.689 139.182,72.871 139.295 C 73.039 139.399,72.612 139.492,71.922 139.503 C 71.231 139.513,70.280 139.721,69.808 139.966 C 69.336 140.210,68.738 140.354,68.479 140.286 C 68.172 140.206,68.052 140.279,68.135 140.495 C 68.206 140.679,68.490 140.768,68.770 140.695 C 69.049 140.622,70.184 140.690,71.293 140.846 C 72.401 141.002,74.128 141.207,75.130 141.301 L 76.953 141.473 74.609 142.111 C 73.320 142.462,71.563 142.906,70.703 143.099 L 69.141 143.448 71.239 143.469 C 72.734 143.484,73.483 143.377,73.843 143.098 C 74.334 142.719,74.334 142.712,73.851 142.882 C 73.531 142.994,73.413 142.958,73.522 142.782 C 73.771 142.380,75.562 142.093,75.766 142.423 C 75.944 142.710,78.657 142.513,78.582 142.218 C 78.559 142.129,78.801 141.559,79.119 140.951 C 79.438 140.342,79.608 139.842,79.497 139.840 C 79.387 139.838,79.452 139.737,79.643 139.617 C 79.843 139.489,79.133 139.420,77.950 139.451 C 75.252 139.522,73.455 139.301,74.609 139.040 C 75.541 138.830,74.649 138.797,73.327 138.993 M94.466 139.507 C 94.788 139.569,95.316 139.569,95.638 139.507 C 95.960 139.445,95.697 139.394,95.052 139.394 C 94.408 139.394,94.144 139.445,94.466 139.507 M130.734 140.039 C 130.739 140.263,131.711 141.201,132.292 141.541 C 132.507 141.668,132.276 141.337,131.779 140.807 C 130.832 139.798,130.726 139.720,130.734 140.039 M152.279 140.298 C 153.747 140.345,156.149 140.345,157.617 140.298 C 159.085 140.252,157.884 140.214,154.948 140.214 C 152.012 140.214,150.811 140.252,152.279 140.298 M217.117 140.292 C 217.579 140.350,218.399 140.351,218.940 140.294 C 219.480 140.238,219.102 140.191,218.099 140.190 C 217.096 140.188,216.654 140.235,217.117 140.292 M226.502 140.293 C 226.970 140.351,227.673 140.350,228.065 140.290 C 228.456 140.231,228.073 140.183,227.214 140.185 C 226.354 140.186,226.034 140.235,226.502 140.293 M237.695 140.295 C 238.304 140.350,239.300 140.350,239.909 140.295 C 240.518 140.240,240.020 140.195,238.802 140.195 C 237.585 140.195,237.087 140.240,237.695 140.295 M258.659 140.294 C 259.196 140.350,260.075 140.350,260.612 140.294 C 261.149 140.238,260.710 140.192,259.635 140.192 C 258.561 140.192,258.122 140.238,258.659 140.294 M267.643 140.293 C 268.109 140.350,268.870 140.350,269.336 140.293 C 269.801 140.235,269.421 140.188,268.490 140.188 C 267.559 140.188,267.178 140.235,267.643 140.293 M343.688 140.549 C 344.012 140.611,344.481 140.609,344.730 140.544 C 344.979 140.478,344.714 140.427,344.141 140.430 C 343.568 140.433,343.364 140.486,343.688 140.549 M83.160 150.122 C 83.160 150.329,83.258 150.437,83.377 150.363 C 83.497 150.290,83.711 150.536,83.854 150.911 C 83.997 151.287,84.219 151.529,84.347 151.449 C 84.476 151.370,84.651 151.488,84.736 151.711 C 84.822 151.934,85.010 152.043,85.154 151.954 C 85.299 151.865,85.417 151.923,85.417 152.083 C 85.417 152.243,85.524 152.308,85.655 152.227 C 85.786 152.146,85.932 152.181,85.980 152.303 C 86.123 152.668,90.313 153.958,91.355 153.958 C 91.885 153.958,92.396 154.083,92.491 154.237 C 92.607 154.424,92.885 154.371,93.337 154.075 C 93.707 153.832,94.010 153.754,94.010 153.900 C 94.010 154.047,94.245 154.167,94.531 154.167 C 94.818 154.167,95.052 154.272,95.052 154.400 C 95.052 154.658,101.877 154.571,103.125 154.297 C 103.928 154.120,104.213 153.646,103.516 153.646 C 103.301 153.646,103.125 153.516,103.125 153.358 C 103.125 153.199,102.963 153.131,102.766 153.207 C 102.569 153.283,102.300 153.237,102.169 153.106 C 102.037 152.975,101.584 152.846,101.160 152.819 C 100.737 152.792,100.263 152.675,100.106 152.559 C 99.950 152.443,99.476 152.310,99.053 152.264 C 98.630 152.218,98.153 152.099,97.993 152.001 C 97.834 151.902,97.535 151.886,97.330 151.965 C 97.124 152.043,96.206 151.977,95.288 151.818 C 93.775 151.554,93.068 151.439,92.318 151.331 C 92.174 151.311,92.233 151.174,92.448 151.028 C 92.730 150.836,92.567 150.809,91.862 150.931 C 91.282 151.031,90.885 150.996,90.885 150.844 C 90.885 150.612,88.520 150.249,84.614 149.882 C 83.456 149.773,83.160 149.822,83.160 150.122 M51.367 152.002 C 51.618 152.068,52.028 152.068,52.279 152.002 C 52.529 151.937,52.324 151.883,51.823 151.883 C 51.322 151.883,51.117 151.937,51.367 152.002 M64.193 157.031 L 63.151 157.218 64.063 157.251 C 64.564 157.269,65.150 157.170,65.365 157.031 C 65.791 156.756,65.731 156.756,64.193 157.031 M111.784 160.089 C 112.894 160.138,114.710 160.138,115.820 160.089 C 116.930 160.041,116.022 160.001,113.802 160.001 C 111.582 160.001,110.674 160.041,111.784 160.089 " stroke="none" fill="#7f68eb" fill-rule="evenodd"></path><path id="path4" d="M102.018 92.632 C 102.340 92.694,102.868 92.694,103.190 92.632 C 103.512 92.570,103.249 92.519,102.604 92.519 C 101.960 92.519,101.696 92.570,102.018 92.632 M50.366 100.651 C 50.366 102.943,50.406 103.845,50.454 102.657 C 50.503 101.468,50.502 99.593,50.454 98.490 C 50.405 97.387,50.366 98.359,50.366 100.651 M127.154 111.198 C 127.154 111.842,127.205 112.106,127.267 111.784 C 127.329 111.462,127.329 110.934,127.267 110.612 C 127.205 110.290,127.154 110.553,127.154 111.198 M126.465 115.459 C 126.339 115.958,126.176 116.070,125.717 115.969 C 125.246 115.866,125.207 115.895,125.521 116.119 C 126.228 116.625,127.342 115.536,126.737 114.931 C 126.675 114.870,126.553 115.107,126.465 115.459 M113.618 116.079 C 114.590 116.129,116.114 116.129,117.003 116.078 C 117.892 116.027,117.096 115.986,115.234 115.987 C 113.372 115.987,112.645 116.029,113.618 116.079 M122.917 117.203 L 121.745 117.401 122.981 117.357 C 123.661 117.334,124.247 117.385,124.283 117.471 C 124.359 117.651,126.302 117.993,126.302 117.826 C 126.302 117.684,124.468 116.915,124.252 116.966 C 124.162 116.988,123.561 117.094,122.917 117.203 M258.523 117.115 C 258.985 117.173,259.805 117.174,260.346 117.117 C 260.886 117.061,260.508 117.014,259.505 117.013 C 258.503 117.011,258.061 117.058,258.523 117.115 M115.951 117.374 C 116.344 117.434,116.989 117.434,117.383 117.374 C 117.777 117.314,117.454 117.266,116.667 117.266 C 115.879 117.266,115.557 117.314,115.951 117.374 M153.581 117.371 C 153.903 117.433,154.430 117.433,154.753 117.371 C 155.075 117.309,154.811 117.258,154.167 117.258 C 153.522 117.258,153.258 117.309,153.581 117.371 M158.402 117.374 C 158.798 117.434,159.384 117.433,159.704 117.371 C 160.024 117.309,159.701 117.260,158.984 117.262 C 158.268 117.264,158.006 117.315,158.402 117.374 M257.377 119.141 C 257.378 120.143,257.425 120.521,257.482 119.981 C 257.538 119.441,257.537 118.621,257.480 118.158 C 257.422 117.696,257.376 118.138,257.377 119.141 M100.391 118.767 C 99.531 119.037,97.188 119.494,95.182 119.784 C 90.653 120.437,88.031 120.980,87.671 121.339 C 87.520 121.491,87.097 121.634,86.732 121.657 C 85.705 121.722,89.730 122.063,91.975 122.101 C 94.505 122.144,95.523 122.478,95.015 123.096 C 94.821 123.333,95.204 123.126,95.866 122.636 C 96.529 122.146,97.925 121.217,98.969 120.573 C 100.013 119.928,101.287 119.141,101.801 118.823 C 102.926 118.127,102.487 118.109,100.391 118.767 M110.286 119.391 C 106.142 120.149,98.958 123.061,99.143 123.907 C 99.174 124.045,98.998 124.142,98.753 124.123 C 98.508 124.104,98.339 124.244,98.379 124.433 C 98.418 124.623,98.338 124.709,98.200 124.623 C 97.820 124.389,95.102 126.357,93.488 128.035 C 91.902 129.684,92.062 129.599,95.610 126.915 C 100.542 123.183,104.398 121.312,110.286 119.794 C 113.318 119.012,113.318 118.836,110.286 119.391 M100.716 121.632 C 100.179 121.916,99.740 122.206,99.740 122.277 C 99.740 122.393,101.797 121.432,102.062 121.192 C 102.361 120.921,101.579 121.177,100.716 121.632 M96.984 123.910 C 95.286 125.028,90.543 128.787,89.980 129.461 C 89.656 129.848,89.802 129.777,90.370 129.271 C 91.520 128.247,95.285 125.352,96.689 124.414 C 97.725 123.722,98.405 123.159,98.164 123.194 C 98.100 123.203,97.569 123.525,96.984 123.910 M203.236 129.688 C 203.236 132.910,203.274 134.229,203.319 132.617 C 203.365 131.006,203.365 128.369,203.319 126.758 C 203.274 125.146,203.236 126.465,203.236 129.688 M215.696 125.000 C 215.696 125.645,215.747 125.908,215.809 125.586 C 215.871 125.264,215.871 124.736,215.809 124.414 C 215.747 124.092,215.696 124.355,215.696 125.000 M257.408 132.031 C 257.408 136.543,257.443 138.389,257.486 136.133 C 257.530 133.877,257.530 130.186,257.486 127.930 C 257.443 125.674,257.408 127.520,257.408 132.031 M288.799 125.574 C 288.729 126.534,288.766 127.225,288.881 127.109 C 288.997 126.994,289.054 126.208,289.008 125.363 L 288.926 123.828 288.799 125.574 M312.876 132.031 C 312.876 136.543,312.912 138.389,312.955 136.133 C 312.999 133.877,312.999 130.186,312.955 127.930 C 312.912 125.674,312.876 127.520,312.876 132.031 M316.341 124.146 C 316.845 124.238,316.927 124.416,316.927 125.408 C 316.927 126.043,317.020 126.563,317.134 126.563 C 317.761 126.563,317.040 124.088,316.406 124.063 C 315.840 124.042,315.831 124.052,316.341 124.146 M188.099 125.781 C 188.099 126.569,188.148 126.891,188.207 126.497 C 188.267 126.104,188.267 125.459,188.207 125.065 C 188.148 124.671,188.099 124.993,188.099 125.781 M327.083 124.821 C 327.083 124.866,327.464 125.247,327.930 125.667 L 328.776 126.432 328.011 125.586 C 327.298 124.797,327.083 124.620,327.083 124.821 M122.396 125.390 C 111.929 126.668,98.433 131.165,93.728 134.943 L 93.099 135.448 93.932 135.042 C 94.892 134.574,95.833 134.509,95.833 134.911 C 95.833 135.063,95.940 135.121,96.069 135.041 C 96.199 134.961,96.249 135.111,96.180 135.376 C 96.107 135.655,95.291 136.225,94.229 136.739 C 93.225 137.225,92.343 137.719,92.270 137.838 C 92.197 137.956,92.944 137.647,93.930 137.150 C 96.291 135.961,98.617 135.013,101.172 134.198 C 102.318 133.832,103.330 133.415,103.421 133.270 C 103.513 133.125,103.718 133.087,103.877 133.185 C 104.036 133.284,104.167 133.244,104.167 133.096 C 104.167 132.949,104.342 132.896,104.557 132.979 C 104.772 133.061,104.948 132.987,104.948 132.813 C 104.948 132.638,105.124 132.564,105.339 132.646 C 105.553 132.729,105.729 132.675,105.729 132.526 C 105.729 132.375,105.958 132.329,106.250 132.422 C 106.536 132.513,106.771 132.478,106.771 132.345 C 106.771 132.212,107.050 132.157,107.391 132.222 C 107.733 132.287,108.088 132.218,108.181 132.067 C 108.274 131.917,108.522 131.860,108.732 131.940 C 108.943 132.021,109.115 131.987,109.115 131.864 C 109.115 131.741,109.642 131.620,110.286 131.595 C 111.432 131.551,111.459 131.569,111.493 132.377 L 111.527 133.203 111.688 132.292 C 111.902 131.078,112.964 130.881,113.843 131.892 C 114.166 132.263,114.581 132.509,114.767 132.437 C 115.307 132.230,115.156 132.506,114.552 132.829 C 114.164 133.037,114.052 133.040,114.177 132.838 C 114.434 132.422,114.090 132.488,113.637 132.941 C 113.423 133.154,113.332 133.466,113.435 133.632 C 113.564 133.840,113.508 133.863,113.256 133.706 C 112.573 133.280,112.226 133.343,112.495 133.845 C 112.679 134.189,112.618 134.423,112.258 134.749 C 111.797 135.166,111.758 135.151,111.484 134.456 L 111.195 133.724 111.337 134.462 C 111.429 134.937,111.383 135.140,111.208 135.032 C 111.059 134.940,110.938 134.989,110.938 135.141 C 110.938 135.293,111.062 135.417,111.213 135.417 C 111.365 135.417,111.415 135.536,111.325 135.681 C 111.236 135.827,111.072 135.891,110.962 135.823 C 110.853 135.755,110.568 136.109,110.329 136.609 C 109.821 137.674,109.799 137.836,110.176 137.711 C 110.330 137.659,110.427 137.562,110.392 137.493 C 110.192 137.105,111.286 135.914,113.850 133.729 C 116.481 131.487,117.462 130.940,117.083 131.927 C 116.729 132.851,117.257 132.140,117.960 130.746 C 119.464 127.767,123.348 126.170,130.469 125.601 C 132.017 125.477,132.487 125.368,132.031 125.238 C 130.985 124.939,125.365 125.028,122.396 125.390 M200.326 125.911 C 200.329 126.484,200.382 126.688,200.445 126.364 C 200.507 126.040,200.505 125.571,200.439 125.322 C 200.374 125.074,200.323 125.339,200.326 125.911 M347.917 125.911 C 348.403 126.413,348.859 126.823,348.930 126.823 C 349.002 126.823,348.663 126.413,348.177 125.911 C 347.691 125.410,347.235 125.000,347.163 125.000 C 347.092 125.000,347.431 125.410,347.917 125.911 M292.694 126.497 L 291.797 127.474 292.773 126.577 C 293.311 126.083,293.750 125.643,293.750 125.600 C 293.750 125.401,293.530 125.588,292.694 126.497 M306.510 125.602 C 306.510 125.647,306.891 126.028,307.357 126.449 L 308.203 127.214 307.438 126.367 C 306.725 125.578,306.510 125.401,306.510 125.602 M334.749 126.367 L 333.984 127.214 334.831 126.449 C 335.296 126.028,335.677 125.647,335.677 125.602 C 335.677 125.401,335.462 125.578,334.749 126.367 M90.611 126.758 L 89.714 127.734 90.690 126.837 C 91.227 126.343,91.667 125.904,91.667 125.860 C 91.667 125.662,91.446 125.849,90.611 126.758 M176.892 126.749 C 177.287 126.809,177.873 126.808,178.194 126.746 C 178.514 126.684,178.190 126.635,177.474 126.637 C 176.758 126.639,176.496 126.690,176.892 126.749 M341.081 126.746 C 341.403 126.808,341.930 126.808,342.253 126.746 C 342.575 126.684,342.311 126.633,341.667 126.633 C 341.022 126.633,340.758 126.684,341.081 126.746 M278.750 127.278 L 283.152 127.357 282.526 128.066 L 281.901 128.776 282.617 128.145 C 283.764 127.133,283.565 127.080,278.841 127.142 L 274.349 127.200 278.750 127.278 M287.353 128.451 L 286.589 129.297 287.435 128.532 C 288.224 127.819,288.401 127.604,288.200 127.604 C 288.155 127.604,287.774 127.985,287.353 128.451 M215.706 129.818 C 215.707 130.677,215.756 130.997,215.814 130.529 C 215.872 130.061,215.870 129.358,215.811 128.967 C 215.752 128.575,215.704 128.958,215.706 129.818 M252.924 134.428 L 252.865 140.079 251.237 140.172 L 249.609 140.264 251.245 140.314 C 253.287 140.377,253.152 140.831,253.060 134.238 L 252.984 128.776 252.924 134.428 M329.538 134.635 C 329.538 137.858,329.576 139.176,329.621 137.565 C 329.667 135.954,329.667 133.317,329.621 131.706 C 329.576 130.094,329.538 131.413,329.538 134.635 M224.540 130.469 C 224.540 130.970,224.593 131.175,224.659 130.924 C 224.724 130.674,224.724 130.264,224.659 130.013 C 224.593 129.762,224.540 129.967,224.540 130.469 M236.568 135.026 C 236.568 137.891,236.606 139.098,236.652 137.709 C 236.699 136.320,236.699 133.977,236.653 132.501 C 236.606 131.025,236.568 132.161,236.568 135.026 M248.547 135.026 C 248.547 137.891,248.585 139.098,248.631 137.709 C 248.678 136.320,248.678 133.977,248.632 132.501 C 248.585 131.025,248.547 132.161,248.547 135.026 M88.281 131.380 C 87.649 132.025,87.190 132.552,87.261 132.552 C 87.333 132.552,87.909 132.025,88.542 131.380 C 89.174 130.736,89.633 130.208,89.562 130.208 C 89.490 130.208,88.914 130.736,88.281 131.380 M285.010 131.055 L 284.245 131.901 285.091 131.136 C 285.880 130.423,286.057 130.208,285.856 130.208 C 285.811 130.208,285.430 130.589,285.010 131.055 M332.633 131.901 C 332.634 132.760,332.683 133.081,332.741 132.613 C 332.799 132.144,332.798 131.441,332.738 131.050 C 332.679 130.659,332.631 131.042,332.633 131.901 M339.659 130.662 C 340.632 130.712,342.155 130.712,343.045 130.661 C 343.934 130.611,343.138 130.569,341.276 130.570 C 339.414 130.570,338.687 130.612,339.659 130.662 M305.022 131.901 C 305.024 132.617,305.075 132.879,305.135 132.483 C 305.195 132.088,305.193 131.502,305.131 131.181 C 305.069 130.861,305.020 131.185,305.022 131.901 M50.362 134.375 C 50.362 136.309,50.403 137.100,50.454 136.133 C 50.504 135.166,50.504 133.584,50.454 132.617 C 50.403 131.650,50.362 132.441,50.362 134.375 M220.123 132.552 C 220.123 133.197,220.174 133.460,220.236 133.138 C 220.298 132.816,220.298 132.288,220.236 131.966 C 220.174 131.644,220.123 131.908,220.123 132.552 M181.581 133.854 C 181.581 134.499,181.632 134.762,181.694 134.440 C 181.756 134.118,181.756 133.590,181.694 133.268 C 181.632 132.946,181.581 133.210,181.581 133.854 M339.792 133.267 C 341.268 133.314,343.612 133.314,345.001 133.267 C 346.390 133.220,345.182 133.182,342.318 133.182 C 339.453 133.183,338.317 133.221,339.792 133.267 M224.545 134.245 C 224.548 134.818,224.601 135.021,224.663 134.697 C 224.726 134.374,224.723 133.905,224.658 133.656 C 224.593 133.407,224.542 133.672,224.545 134.245 M275.774 135.612 L 274.089 137.370 275.846 135.685 C 277.479 134.119,277.723 133.854,277.532 133.854 C 277.492 133.854,276.701 134.645,275.774 135.612 M85.417 134.896 C 85.111 135.326,84.919 135.677,84.991 135.677 C 85.062 135.677,85.371 135.326,85.677 134.896 C 85.983 134.466,86.175 134.115,86.103 134.115 C 86.032 134.115,85.723 134.466,85.417 134.896 M70.182 135.314 C 66.199 135.706,61.541 136.640,59.766 137.404 C 58.879 137.785,59.270 137.886,60.226 137.523 C 63.164 136.406,70.943 135.461,71.686 136.130 C 72.128 136.530,72.760 136.589,76.592 136.589 C 79.010 136.589,80.990 136.683,80.990 136.799 C 80.990 136.915,81.107 136.937,81.250 136.849 C 81.842 136.483,81.384 136.285,78.971 135.862 C 76.358 135.403,72.021 135.133,70.182 135.314 M84.037 136.914 C 82.607 139.225,82.257 139.844,82.381 139.844 C 82.454 139.844,83.047 138.965,83.699 137.891 C 84.351 136.816,84.830 135.938,84.763 135.938 C 84.697 135.938,84.370 136.377,84.037 136.914 M266.494 138.021 C 266.494 139.095,266.540 139.535,266.596 138.997 C 266.652 138.460,266.652 137.581,266.596 137.044 C 266.540 136.507,266.494 136.947,266.494 138.021 M155.283 137.172 C 156.112 137.224,157.401 137.223,158.148 137.171 C 158.894 137.118,158.216 137.076,156.641 137.077 C 155.065 137.077,154.454 137.120,155.283 137.172 M281.055 137.169 C 281.592 137.225,282.471 137.225,283.008 137.169 C 283.545 137.113,283.105 137.067,282.031 137.067 C 280.957 137.067,280.518 137.113,281.055 137.169 M317.271 138.542 C 317.271 139.473,317.318 139.854,317.376 139.388 C 317.434 138.923,317.434 138.161,317.376 137.695 C 317.318 137.230,317.271 137.611,317.271 138.542 M288.877 138.411 C 288.879 139.128,288.929 139.390,288.989 138.994 C 289.049 138.598,289.047 138.012,288.985 137.692 C 288.924 137.371,288.875 137.695,288.877 138.411 M348.764 138.151 C 348.766 138.724,348.820 138.928,348.882 138.604 C 348.944 138.280,348.942 137.811,348.877 137.562 C 348.812 137.313,348.761 137.578,348.764 138.151 M69.164 138.052 C 67.935 138.340,66.517 139.179,66.299 139.748 C 66.178 140.063,66.250 140.118,66.599 139.979 C 66.851 139.878,67.517 139.748,68.078 139.690 C 68.639 139.632,69.811 139.354,70.682 139.071 C 71.553 138.788,72.764 138.432,73.372 138.279 C 73.981 138.126,74.479 137.947,74.479 137.881 C 74.479 137.668,70.216 137.805,69.164 138.052 M81.409 139.431 C 81.541 139.776,81.506 139.872,81.297 139.743 C 81.094 139.617,81.051 139.702,81.167 140.003 C 81.283 140.304,81.240 140.389,81.037 140.264 C 80.834 140.138,80.791 140.223,80.907 140.524 C 81.015 140.807,80.976 140.908,80.801 140.799 C 80.446 140.580,80.173 141.273,80.391 141.840 C 80.490 142.098,80.452 142.208,80.296 142.111 C 80.152 142.022,79.768 142.593,79.442 143.379 C 78.763 145.017,77.976 145.563,76.250 145.591 C 75.429 145.605,75.269 145.664,75.651 145.813 C 76.038 145.964,75.786 146.065,74.671 146.205 C 73.685 146.328,73.231 146.490,73.346 146.678 C 73.461 146.863,73.365 146.903,73.073 146.791 C 72.713 146.653,72.655 146.722,72.787 147.137 C 72.881 147.434,72.833 147.656,72.674 147.656 C 72.521 147.656,72.396 147.525,72.396 147.364 C 72.396 147.154,72.292 147.158,72.027 147.378 C 71.824 147.546,70.799 147.849,69.748 148.052 L 67.839 148.420 70.573 148.292 C 79.109 147.895,80.243 147.701,78.893 146.867 C 78.638 146.709,78.735 146.602,79.249 146.473 C 79.697 146.361,80.112 146.425,80.385 146.651 C 80.776 146.973,80.784 146.949,80.483 146.384 C 80.174 145.804,80.208 144.863,80.581 143.620 C 80.667 143.333,80.557 143.451,80.336 143.880 L 79.935 144.661 80.103 143.750 C 80.311 142.620,80.943 141.347,81.213 141.514 C 81.324 141.582,81.622 141.264,81.875 140.806 L 82.335 139.974 81.798 140.625 L 81.260 141.276 81.571 140.433 C 81.817 139.767,81.813 139.522,81.551 139.261 C 81.283 138.995,81.256 139.028,81.409 139.431 M277.669 140.299 C 279.782 140.343,283.239 140.343,285.352 140.299 C 287.464 140.255,285.736 140.219,281.510 140.219 C 277.285 140.219,275.557 140.255,277.669 140.299 M313.997 140.293 C 314.463 140.350,315.225 140.350,315.690 140.293 C 316.156 140.235,315.775 140.188,314.844 140.188 C 313.913 140.188,313.532 140.235,313.997 140.293 M326.244 140.295 C 326.856 140.350,327.794 140.349,328.327 140.293 C 328.861 140.238,328.359 140.192,327.214 140.193 C 326.068 140.194,325.631 140.240,326.244 140.295 M175.459 140.809 C 175.783 140.871,176.251 140.869,176.500 140.804 C 176.749 140.739,176.484 140.688,175.911 140.691 C 175.339 140.694,175.135 140.747,175.459 140.809 M196.683 140.812 C 197.079 140.872,197.665 140.870,197.985 140.808 C 198.306 140.747,197.982 140.698,197.266 140.699 C 196.549 140.701,196.287 140.752,196.683 140.812 M209.180 140.812 C 209.574 140.871,210.218 140.871,210.612 140.812 C 211.006 140.752,210.684 140.703,209.896 140.703 C 209.108 140.703,208.786 140.752,209.180 140.812 M299.678 140.809 C 300.001 140.871,300.470 140.869,300.719 140.804 C 300.968 140.739,300.703 140.688,300.130 140.691 C 299.557 140.694,299.354 140.747,299.678 140.809 M341.996 140.812 C 342.392 140.872,342.978 140.870,343.298 140.808 C 343.618 140.747,343.294 140.698,342.578 140.699 C 341.862 140.701,341.600 140.752,341.996 140.812 M101.068 140.979 C 101.264 141.199,105.480 142.696,105.924 142.703 C 106.893 142.718,105.971 142.242,103.970 141.693 C 102.718 141.350,101.517 141.009,101.302 140.936 C 101.087 140.862,100.982 140.882,101.068 140.979 M50.369 147.005 C 50.369 149.727,50.408 150.804,50.455 149.401 C 50.502 147.997,50.501 145.770,50.454 144.453 C 50.407 143.135,50.369 144.284,50.369 147.005 M108.333 142.972 C 108.548 143.109,109.066 143.223,109.484 143.225 C 110.491 143.230,110.272 143.080,108.984 142.883 C 108.275 142.774,108.067 142.803,108.333 142.972 M97.282 144.378 C 98.597 144.951,99.431 145.090,98.307 144.550 C 97.734 144.274,97.090 144.045,96.875 144.040 C 96.660 144.035,96.844 144.187,97.282 144.378 M113.176 147.175 C 113.251 147.297,113.129 147.396,112.906 147.396 C 112.683 147.396,112.498 147.542,112.496 147.721 C 112.493 147.976,112.448 147.978,112.289 147.728 C 112.155 147.516,111.361 147.413,109.927 147.423 C 107.183 147.441,107.313 147.539,110.823 148.098 C 114.659 148.709,123.022 148.721,124.740 148.119 C 125.384 147.893,125.706 147.696,125.456 147.682 C 125.205 147.668,125.000 147.563,125.000 147.449 C 125.000 147.209,121.871 147.200,121.484 147.440 C 121.341 147.529,120.579 147.507,119.792 147.391 C 117.639 147.074,113.020 146.924,113.176 147.175 M81.172 147.786 C 81.861 148.779,82.721 149.560,82.993 149.441 C 83.108 149.390,82.624 148.822,81.916 148.177 C 80.886 147.240,80.738 147.161,81.172 147.786 M50.362 155.859 C 50.362 157.721,50.404 158.449,50.454 157.476 C 50.504 156.503,50.504 154.980,50.453 154.091 C 50.402 153.202,50.361 153.997,50.362 155.859 M103.578 153.110 C 103.899 153.251,104.778 153.432,105.531 153.512 C 106.558 153.621,106.755 153.593,106.318 153.400 C 105.997 153.259,105.118 153.078,104.364 152.998 C 103.338 152.890,103.141 152.918,103.578 153.110 M83.984 153.622 C 84.557 153.891,85.436 154.182,85.938 154.268 C 86.672 154.394,86.596 154.331,85.547 153.943 C 83.623 153.232,82.794 153.061,83.984 153.622 M118.034 160.075 C 118.285 160.141,118.695 160.141,118.945 160.075 C 119.196 160.010,118.991 159.956,118.490 159.956 C 117.988 159.956,117.783 160.010,118.034 160.075 " stroke="none" fill="#92bced" fill-rule="evenodd"></path></g></svg>